<?xml version="1.0" standalone="no"?>
<!DOCTYPE svg PUBLIC "-//W3C//DTD SVG 1.1//EN" "http://www.w3.org/Graphics/SVG/1.1/DTD/svg11.dtd" >
<svg xmlns="http://www.w3.org/2000/svg">
<metadata></metadata>
<defs>
<font id="constantiaitalic" horiz-adv-x="1130" >
<font-face units-per-em="2048" ascent="1538" descent="-510" />
<missing-glyph horiz-adv-x="483" />
<glyph unicode="&#xfb01;" horiz-adv-x="1136" d="M-322 -474q8 48 18.5 92t22.5 86l7 3q131 -100 187 -100q118 0 171 293l168 917l-132 29l3 43l144 13q54 280 218 438t396 158q103 0 196 -27q-32 -123 -57 -249l-42 -7l-68 195q-26 4 -55 4q-151 0 -245 -93t-148 -357l-13 -63h335q73 0 124 20q108 0 108 -84 q0 -18 -4 -38l-131 -635q-5 -22 -5 -36q0 -40 33 -52.5t112 -12.5l-3 -39q-131 -42 -202 -42q-57 0 -88 28.5t-31 88.5q0 14 2 31.5t6 38.5l132 644h-405l-154 -745q-58 -295 -162 -428.5t-286 -133.5q-34 0 -71.5 5t-80.5 15z" />
<glyph unicode="&#xfb02;" horiz-adv-x="1155" d="M-322 -474q17 94 41 178l7 3q132 -100 187 -100q118 0 171 293l168 917l-132 29l3 43l144 13l2 10q55 277 203 431.5t352 154.5q101 0 191 -25q64 14 145 33l8 -12q-18 -75 -43.5 -192.5t-54.5 -256.5l-180 -881q-4 -18 -4 -36q0 -40 34 -52.5t113 -12.5l-4 -39 q-128 -42 -203 -42q-58 0 -89 28.5t-31 88.5q0 14 1.5 31.5t6.5 38.5l247 1202q-71 43 -171 43q-119 0 -199 -101.5t-135 -374.5l-7 -35h262l-18 -90h-261l-154 -745q-59 -297 -163 -429.5t-285 -132.5q-67 0 -152 20z" />
<glyph unicode="&#xfb03;" horiz-adv-x="1719" d="M-322 -474q17 94 41 178l7 3q132 -100 187 -100q118 0 171 293l168 917l-132 29l3 43l144 13q55 270 202 423t351 153q94 0 178 -27q-34 -115 -57 -249l-42 -7l-63 194q-18 5 -50 5q-119 0 -199 -101.5t-135 -374.5l-3 -17h401q54 281 218 439t396 158q103 0 196 -27 q-32 -123 -57 -249l-42 -7l-68 195q-26 4 -55 4q-151 0 -245 -93t-148 -357l-13 -63h335q73 0 124 20q108 0 108 -84q0 -18 -4 -38l-131 -635q-5 -22 -5 -36q0 -40 33 -52.5t112 -12.5l-3 -39q-131 -42 -202 -42q-57 0 -88 28.5t-31 88.5q0 14 2 31.5t6 38.5l132 644h-405 l-150 -725q-59 -297 -163 -429.5t-285 -132.5q-67 0 -152 20q17 94 41 178l7 3q132 -100 187 -100q118 0 171 293l163 893h-402l-154 -745q-59 -297 -163 -429.5t-285 -132.5q-67 0 -152 20z" />
<glyph unicode="&#xfb04;" horiz-adv-x="1738" d="M-322 -474q17 94 41 178l7 3q132 -100 187 -100q118 0 171 293l168 917l-132 29l3 43l144 13q55 270 202 423t351 153q94 0 178 -27q-34 -115 -57 -249l-42 -7l-63 194q-18 5 -50 5q-119 0 -199 -101.5t-135 -374.5l-3 -17h401l2 11q55 277 203 431.5t352 154.5 q101 0 191 -25q64 14 145 33l8 -12q-18 -75 -43.5 -192.5t-54.5 -256.5l-180 -881q-4 -18 -4 -36q0 -40 34 -52.5t113 -12.5l-4 -39q-128 -42 -203 -42q-58 0 -89 28.5t-31 88.5q0 14 1.5 31.5t6.5 38.5l247 1202q-71 43 -171 43q-119 0 -199 -101.5t-135 -374.5l-7 -37h262 l-18 -88h-261l-150 -725q-59 -297 -163 -429.5t-285 -132.5q-67 0 -152 20q17 94 41 178l7 3q132 -100 187 -100q118 0 171 293l163 893h-402l-154 -745q-59 -297 -163 -429.5t-285 -132.5q-67 0 -152 20z" />
<glyph horiz-adv-x="2048" />
<glyph horiz-adv-x="2048" />
<glyph unicode="&#xd;" horiz-adv-x="2048" />
<glyph unicode=" "  horiz-adv-x="483" />
<glyph unicode="&#x09;" horiz-adv-x="483" />
<glyph unicode="&#xa0;" horiz-adv-x="483" />
<glyph unicode="!" horiz-adv-x="564" d="M127 92q0 53 33.5 85.5t79.5 32.5q58 0 88.5 -32.5t30.5 -85.5t-34 -86.5t-87 -33.5q-51 0 -81 33.5t-30 86.5zM254 399l110 948l234 14l7 -8l-287 -953z" />
<glyph unicode="&#x22;" horiz-adv-x="706" d="M200 1002l50 485h186l-171 -485h-65zM520 1002l50 485h186l-171 -485h-65z" />
<glyph unicode="#" d="M44 381l8 115h219l65 291h-201l8 115h218l87 392h117l-87 -392h289l87 392h116l-86 -392h202l-8 -115h-220l-64 -291h201l-8 -115h-219l-86 -391h-117l86 391h-289l-86 -391h-117l86 391h-201zM388 496h289l65 291h-289z" />
<glyph unicode="$" horiz-adv-x="901" d="M-30 31l96 290l36 7l17 -247q98 -28 199 -29l83 407q-159 61 -216.5 129t-57.5 165q0 124 111 210.5t286 99.5l23 111l73 8l-24 -117q137 -1 296 -35l5 -7l-97 -261l-33 -6l-21 210q-66 22 -165 22l-78 -381q163 -63 228 -135t65 -168q0 -142 -118 -231t-303 -98 l-25 -126l-75 -8l27 134q-166 2 -328 48zM287 812q0 -67 39.5 -106t110.5 -71l71 349q-104 -12 -162.5 -56.5t-58.5 -115.5zM392 55q107 12 174 60.5t67 129.5q0 61 -40 105t-125 81z" />
<glyph unicode="%" horiz-adv-x="1687" d="M151 941q0 66 11.5 132t34 126.5t55.5 113t76.5 90.5t96.5 60t116 22q125 0 196 -77.5t71 -221.5q0 -66 -11.5 -132t-33.5 -127t-55 -113.5t-76.5 -91.5t-96.5 -61t-117 -22q-123 0 -195 78.5t-72 223.5zM235 0l1224 1477l63 -47l-1225 -1477zM292 916q0 -109 31.5 -166 t96.5 -57q44 0 82.5 27t67.5 71t47.5 100.5t30 115t16 114t4.5 97.5q0 105 -32.5 159t-99.5 54q-45 0 -82.5 -26t-65.5 -69t-46.5 -97.5t-29.5 -112t-15.5 -112.5t-4.5 -98zM980 283q0 66 11.5 132t34 126.5t55.5 113t76.5 90.5t96.5 60t116 22q125 0 196 -77.5t71 -221.5 q0 -66 -11.5 -132t-33.5 -127t-55 -113.5t-76.5 -91.5t-96.5 -61t-117 -22q-123 0 -195 78.5t-72 223.5zM1121 258q0 -109 31.5 -166t96.5 -57q44 0 82.5 27t67.5 71t47.5 100.5t30 115t16 114t4.5 97.5q0 105 -32.5 159t-99.5 54q-45 0 -82.5 -26t-65.5 -69t-46.5 -97.5 t-29.5 -112t-15.5 -112.5t-4.5 -98z" />
<glyph unicode="&#x26;" horiz-adv-x="1501" d="M70 377q0 148 93 250.5t278 145.5v6q-132 105 -132 251q0 156 134.5 253t339.5 97q139 0 271 -34l6 -7l-101 -281l-40 -7l-22 228q-60 21 -130 21q-120 0 -197 -70t-77 -191q0 -202 237 -248l-16 -60q-43 8 -102 8q-155 0 -248 -91.5t-93 -235.5q0 -150 106.5 -242.5 t278.5 -92.5q88 0 168.5 26.5t142 74t98 113t36.5 144.5q0 58 -15 99t-37.5 67t-49.5 38t-52 12q-52 0 -78.5 -29t-26.5 -65q0 -45 32 -84l-2 -8q-63 -29 -134 -50q-28 43 -28 88q0 91 99.5 165.5t220.5 74.5q50 0 99 -9.5t96 -21.5q45 -11 86.5 -20.5t78.5 -9.5 q71 0 156 83l31 -28q-68 -109 -118 -145t-108 -36q-62 0 -202 41l-2 -4q43 -70 43 -161q0 -94 -45.5 -179t-126 -149t-190.5 -102t-240 -38q-230 0 -374 113.5t-144 299.5z" />
<glyph unicode="'" horiz-adv-x="386" d="M200 1002l50 485h186l-171 -485h-65z" />
<glyph unicode="(" horiz-adv-x="751" d="M135 379q0 715 682 1191l41 -43q-560 -491 -560 -1192q1 -414 174 -678l-44 -33q-293 315 -293 755z" />
<glyph unicode=")" horiz-adv-x="755" d="M-58 -333q560 491 560 1192q-1 414 -174 678l44 33q293 -315 293 -755q0 -715 -682 -1191z" />
<glyph unicode="*" horiz-adv-x="887" d="M256 1206l70 130l243 -209l29 311l145 -28l-124 -295l305 68l19 -146l-320 26l158 -266l-133 -64l-73 310l-206 -234l-101 107l273 167z" />
<glyph unicode="+" d="M83 401v121h412v412h121v-412h411v-121h-411v-411h-121v411h-412z" />
<glyph unicode="," horiz-adv-x="524" d="M-39 -234q165 120 165 241q0 85 -84 136q4 56 39 90t86 34q54 0 87.5 -39t33.5 -105q0 -216 -294 -402z" />
<glyph unicode="-" horiz-adv-x="693" d="M67 432l27 130h526l-27 -130h-526z" />
<glyph unicode="&#xad;" horiz-adv-x="693" d="M67 432l27 130h526l-27 -130h-526z" />
<glyph unicode="." horiz-adv-x="524" d="M59 92q0 53 33.5 85.5t79.5 32.5q58 0 88.5 -32.5t30.5 -85.5t-34 -86.5t-87 -33.5q-51 0 -81 33.5t-30 86.5z" />
<glyph unicode="/" horiz-adv-x="805" d="M50 -226l605 1652h120l-605 -1652h-120z" />
<glyph unicode="0" horiz-adv-x="1103" d="M92 387q0 248 143.5 405.5t367.5 157.5q187 0 300.5 -113t113.5 -306q0 -244 -143.5 -400.5t-366.5 -156.5q-190 0 -302.5 113t-112.5 300zM287 377q0 -148 61.5 -236.5t170.5 -88.5q135 0 219 144t84 351q0 153 -62.5 239t-168.5 86q-135 0 -219.5 -145t-84.5 -350z" />
<glyph unicode="1" horiz-adv-x="630" d="M-24 -3l4 40l162 41q25 7 31 32q18 81 36 180l34 176q38 201 64 356l-190 20l3 42q197 30 394 66l7 -8q-44 -175 -80 -361l-48 -254q-26 -132 -39 -213q-5 -29 19 -36l150 -41l-4 -40q-180 3 -273 3t-270 -3z" />
<glyph unicode="2" horiz-adv-x="942" d="M-10 -3l7 79q160 102 274.5 181t187.5 145.5t107 125t34 119.5q0 82 -54 129t-135 47q-109 0 -230 -64l-30 64q172 127 346 127q131 0 220 -74t89 -189q0 -67 -35 -128t-106.5 -123.5t-179 -131t-252.5 -150.5v-5h474l106 165l43 8l-80 -318l-8 -7q-161 3 -397 3 q-254 0 -381 -3z" />
<glyph unicode="3" horiz-adv-x="935" d="M-99 -460l4 74q92 2 179.5 14t166 34.5t144 56.5t113.5 79.5t74.5 104t26.5 130.5q0 113 -63.5 176t-183.5 63q-76 0 -149 -13l8 73q184 20 304 102.5t120 209.5q0 82 -58 134t-154 52q-131 0 -274 -76l-26 66q205 130 399 130q145 0 230 -70.5t85 -175.5 q0 -127 -105.5 -217.5t-266.5 -140.5v-4q145 5 240.5 -71.5t95.5 -212.5q0 -87 -36 -159.5t-99 -130t-149.5 -100t-187.5 -71t-213 -43t-225 -14.5z" />
<glyph unicode="4" horiz-adv-x="1062" d="M20 37l7 73q99 114 201.5 228t202.5 221.5t194.5 205t177.5 178.5l130 7l4 -12q-54 -52 -117.5 -117t-131 -135.5t-136 -143.5t-133 -142.5t-122.5 -132.5t-103 -112h400l63 338l179 15l-67 -353h218l-18 -118q-105 3 -221 3l-30 -157q-11 -60 -24 -130.5t-25 -152.5 q-89 -10 -178 -26l-8 8q17 78 30.5 149t26.5 136l33 173h-237q-65 0 -144 -0.5t-172 -2.5z" />
<glyph unicode="5" horiz-adv-x="952" d="M-95 -458l4 74q150 3 280 35t225 89.5t149.5 138.5t54.5 183q0 142 -103 228.5t-363 112.5l-5 7l147 518q106 -4 283 -4q209 0 320 4l3 -8l-53 -161l-508 14l-68 -229q268 -26 407.5 -140t139.5 -295q0 -89 -33.5 -165.5t-94.5 -139t-145.5 -111t-185.5 -82t-216.5 -51 t-237.5 -18.5z" />
<glyph unicode="6" horiz-adv-x="1108" d="M106 413q0 106 28.5 216.5t85 216t140.5 200t194.5 168t247.5 121t299 58.5l4 -71q-543 -57 -747 -600l2 -1q123 132 303 132q155 0 253.5 -98t98.5 -254q0 -213 -151.5 -370t-369.5 -157q-187 0 -287.5 117.5t-100.5 321.5zM289 358q0 -143 56.5 -225.5t159.5 -82.5 q137 0 223.5 130t86.5 311q-2 130 -60 201.5t-164 71.5q-133 0 -217.5 -114.5t-84.5 -291.5z" />
<glyph unicode="7" horiz-adv-x="990" d="M72 -403l763 1176h-602l-91 -198l-42 -7l50 352l9 8q112 -2 218 -3t208 -1h63q103 0 197 1t182 3l-4 -43q-70 -107 -142 -220t-142.5 -228.5t-138 -229t-128.5 -221t-114 -205.5t-94 -181l-188 -10z" />
<glyph unicode="8" horiz-adv-x="1099" d="M67 293q0 138 99 233t302 176q-105 70 -154.5 146.5t-49.5 176.5q0 145 125 246t315 101q161 0 263.5 -75.5t102.5 -191.5q0 -117 -92.5 -209t-252.5 -156q156 -98 220.5 -183.5t64.5 -187.5q0 -170 -149 -282.5t-366 -112.5q-191 0 -309.5 87t-118.5 232zM252 314 q0 -112 76 -186t196 -74q119 0 204 72t85 187q0 93 -56.5 171t-231.5 181q-155 -68 -214 -151.5t-59 -199.5zM436 1066q0 -83 60 -151t164 -133q231 105 231 310q0 97 -59.5 149t-159.5 52q-108 0 -172 -62.5t-64 -164.5z" />
<glyph unicode="9" horiz-adv-x="1108" d="M20 -387q551 58 747 589l-2 1q-122 -132 -303 -132q-156 0 -254 97.5t-98 254.5q0 216 153.5 371.5t367.5 155.5q183 0 285.5 -115t102.5 -324q0 -106 -28.5 -215.5t-85 -213.5t-140.5 -197.5t-194.5 -166t-247.5 -119t-299 -57.5zM310 433q2 -130 60 -201.5t164 -71.5 q133 0 217.5 113t84.5 293q0 147 -58 227.5t-158 80.5q-136 0 -223 -129t-87 -312z" />
<glyph unicode=":" horiz-adv-x="524" d="M106 92q0 53 33.5 85.5t79.5 32.5q58 0 88.5 -32.5t30.5 -85.5t-34 -86.5t-87 -33.5q-51 0 -81 33.5t-30 86.5zM247 795q0 53 33.5 85.5t79.5 32.5q58 0 88.5 -32.5t30.5 -85.5t-34 -86.5t-87 -33.5q-51 0 -81 33.5t-30 86.5z" />
<glyph unicode=";" horiz-adv-x="524" d="M51 -234q165 120 165 241q0 85 -84 136q4 56 39 90t86 34q54 0 87.5 -39t33.5 -105q0 -216 -294 -402zM247 795q0 53 33.5 85.5t79.5 32.5q58 0 88.5 -32.5t30.5 -85.5t-34 -86.5t-87 -33.5q-51 0 -81 33.5t-30 86.5z" />
<glyph unicode="&#x3c;" d="M83 401v121l944 400v-127l-799 -334l799 -333v-127z" />
<glyph unicode="=" d="M83 231v121h944v-121h-944zM83 571v121h944v-121h-944z" />
<glyph unicode="&#x3e;" d="M83 1v127l799 333l-799 334v127l944 -400v-121z" />
<glyph unicode="?" horiz-adv-x="890" d="M222 92q0 53 33.5 85.5t79.5 32.5q58 0 88.5 -32.5t30.5 -85.5t-34 -86.5t-87 -33.5q-51 0 -81 33.5t-30 86.5zM273 1042v281q183 65 332 65q145 0 226.5 -61t81.5 -181q0 -64 -23.5 -118t-61.5 -100t-85.5 -86.5t-95.5 -77.5q-41 -32 -78.5 -62t-66.5 -60.5t-46.5 -62 t-17.5 -65.5q0 -45 34 -98l-39 -30q-143 134 -143 213q0 35 18.5 68.5t49.5 66t70.5 64.5t80.5 64q55 42 97.5 77t71.5 68t44 67t15 74q0 76 -45.5 117t-127.5 41q-73 0 -148 -29l-102 -228z" />
<glyph unicode="@" horiz-adv-x="1727" d="M83 317q0 372 276.5 633.5t672.5 261.5q267 0 433.5 -147.5t166.5 -389.5q0 -103 -25 -189.5t-67 -157t-96 -124t-111 -89.5t-114 -54.5t-104 -18.5q-66 0 -105.5 38t-41.5 106q-175 -143 -242 -143q-105 0 -173.5 79.5t-68.5 212.5q0 227 141 381t345 154q77 0 184 -32 q56 11 100 28l12 -7q-15 -51 -32.5 -124.5t-37.5 -172.5l-63 -309q-6 -29 -6 -48q0 -65 49 -65q20 0 53.5 12t72.5 38.5t79 68t72 100t52.5 135t20.5 173.5q0 217 -137.5 344.5t-363.5 127.5q-340 0 -563.5 -228.5t-223.5 -570.5q0 -264 159 -432.5t419 -168.5 q364 0 642 251l36 -48q-139 -138 -333.5 -220.5t-402.5 -82.5q-304 0 -489.5 189.5t-185.5 488.5zM653 376q0 -97 35.5 -155.5t94.5 -58.5q55 0 192 95l105 509q-63 33 -124 33q-121 0 -212 -129t-91 -294z" />
<glyph unicode="A" horiz-adv-x="1353" d="M-138 -3l4 43l101 31q23 8 41.5 20.5t33 27.5t25.5 31.5t21 32.5l720 1223l98 15l211 -1223q10 -68 27 -94q17 -25 51 -36l93 -28l-6 -43q-126 3 -246 3q-117 0 -257 -3l4 43l95 28q21 7 34.5 18t13.5 43t-15 120l-44 271h-467l-152 -268q-32 -57 -52 -96t-20 -56 q0 -10 8 -17.5t26 -13.5l89 -27l-7 -45q-126 3 -234 3t-196 -3zM450 608h402l-90 551z" />
<glyph unicode="B" horiz-adv-x="1203" d="M14 -3l4 43l125 37q27 8 34 31q8 40 18 89.5t22 109.5l155 811q10 51 17 92t12 74q5 25 -17 34l-121 39l6 43q132 -4 254 -4q30 0 111.5 5t113.5 5q211 0 318.5 -77t107.5 -209q0 -293 -328 -366q271 -74 271 -308q0 -217 -167.5 -334.5t-443.5 -117.5q-50 0 -112.5 3 t-134.5 3q-121 0 -245 -3zM366 87q53 -16 144 -16q192 0 292.5 90.5t100.5 264.5q0 135 -78.5 207.5t-228.5 72.5q-57 0 -115 -4zM497 779q45 -2 97 -2q191 0 285.5 79.5t94.5 240.5q0 110 -71.5 168.5t-211.5 58.5q-44 0 -92 -7z" />
<glyph unicode="C" horiz-adv-x="1320" d="M117 562q0 378 255 619.5t640 241.5q166 0 354 -41l5 -8l-116 -323l-41 -6l-23 265q-100 29 -219 29q-280 0 -462 -222.5t-182 -534.5q0 -233 134 -365.5t366 -132.5q151 0 314 57l12 -41q-202 -130 -443 -130q-270 0 -432 161.5t-162 430.5z" />
<glyph unicode="D" horiz-adv-x="1537" d="M14 -3l4 43l125 37q30 8 34 31q8 40 18 89.5t22 109.5l155 811q10 51 17 92t12 74q5 25 -17 34l-121 39l6 43q132 -4 254 -4q59 0 156.5 5t164.5 5q298 0 464 -136t166 -393q0 -394 -247 -638.5t-662 -244.5q-53 0 -151 3t-155 3q-121 0 -245 -3zM368 86q93 -14 222 -14 q307 0 490.5 231t183.5 579q0 222 -111.5 332t-341.5 110q-90 0 -210 -8z" />
<glyph unicode="E" horiz-adv-x="1166" d="M14 -3l4 43l125 37q27 7 34 31q8 40 18 89.5t22 109.5l155 811q10 51 17 92t12 74q5 26 -17 34l-121 39l6 43q132 -4 251 -4h220q224 0 474 4l5 -8l-113 -309l-42 -7l-19 233h-445l-105 -553h101q72 0 200 1q28 2 39 27l62 136l54 2q-31 -144 -44 -211q-12 -65 -35 -200 l-54 -4l-11 138q-2 26 -25 27q-88 2 -203 2h-100l-69 -365q-21 -111 -40 -221h467l160 256l49 8l-83 -348l-7 -7q-258 3 -478 3h-219q-121 0 -245 -3z" />
<glyph unicode="F" horiz-adv-x="1082" d="M14 -3l4 43l125 37q29 8 34 31q18 81 40 199l155 811q10 51 17 92t12 74q5 26 -17 34l-121 39l6 43q132 -4 251 -4h220q224 0 474 4l5 -8l-113 -309l-42 -7l-19 233h-445l-109 -574h74q104 0 233 1q27 2 38 27l67 136l49 2q-30 -140 -42 -207q-13 -65 -36 -204l-49 -4 l-16 138q-4 26 -25 27q-131 2 -236 2h-73l-66 -346q-22 -118 -35 -194q-3 -24 20 -31l138 -42l-7 -43q-148 3 -266 3q-120 0 -245 -3z" />
<glyph unicode="G" horiz-adv-x="1387" d="M114 555q0 386 252 627t652 241q168 0 346 -41l5 -8l-116 -323l-41 -6l-24 265q-94 29 -210 29q-288 0 -470 -221t-182 -532q0 -232 125 -383.5t329 -151.5q71 0 148 17l51 272q11 51 17.5 91.5t13.5 74.5q0 25 -18 34l-121 39l6 43q133 -4 248 -4q120 0 229 4l-4 -43 l-110 -33q-27 -7 -33 -30q-8 -40 -16.5 -81.5t-18.5 -90.5l-61 -317l-7 -7q-187 -50 -363 -50q-293 0 -460 154t-167 431z" />
<glyph unicode="H" horiz-adv-x="1597" d="M14 -3l4 43l125 37q29 8 34 31q18 81 40 199l155 811q19 100 29 166q5 26 -17 34l-121 39l6 43q132 -4 247 -4q121 0 239 4l-4 -43l-120 -35q-26 -6 -32 -31q-16 -72 -35 -169l-64 -338h713l64 338q19 97 31 169q4 25 -20 31l-107 35l6 43q123 -4 241 -4q117 0 239 4 l-4 -43l-130 -39q-24 -8 -30 -34q-15 -66 -34 -166l-155 -811q-21 -118 -35 -199q-3 -23 20 -31l119 -37l-6 -43q-135 3 -251 3q-120 0 -233 -3l4 43l117 35q27 7 33 34q18 80 40 198l74 387h-713l-74 -387q-22 -118 -36 -198q-4 -27 20 -34l107 -35l-6 -43q-120 3 -237 3 q-118 0 -243 -3z" />
<glyph unicode="I" horiz-adv-x="692" d="M14 -3l4 43l125 37q27 7 34 31q8 40 18 89.5t22 109.5l155 811q10 51 17 92t12 74q5 26 -17 34l-121 39l6 43q132 -4 250 -4t243 4l-5 -43l-127 -37q-25 -6 -31 -31q-9 -35 -17 -76.5t-18 -90.5l-155 -815q-12 -60 -20.5 -109t-15.5 -89q-3 -25 28 -34l112 -35l-7 -43 q-132 3 -246 3q-122 0 -246 -3z" />
<glyph unicode="J" horiz-adv-x="638" d="M-228 -377q112 44 181.5 97t113 121t68 153t44.5 192l179 932q9 51 16.5 92t12.5 74q4 26 -18 34l-121 39l7 43q132 -4 251 -4q116 0 241 4l-4 -43l-127 -37q-25 -6 -32 -31q-8 -35 -16.5 -76.5t-17.5 -90.5l-172 -906q-19 -98 -42.5 -178.5t-53.5 -143.5t-74 -112.5 t-103.5 -88t-140 -67.5t-180.5 -52z" />
<glyph unicode="K" horiz-adv-x="1344" d="M14 -3l4 43l125 37q29 8 34 31q8 40 18 89.5t22 109.5l155 811q10 51 17 92t12 74q5 26 -17 34l-121 39l6 43q132 -4 251 -4q116 0 231 4l-4 -43l-116 -35q-25 -6 -32 -31q-7 -36 -16 -78t-19 -91l-155 -815q-12 -60 -20.5 -109t-15.5 -89q-3 -26 20 -34l109 -35l-6 -43 q-122 3 -237 3q-121 0 -245 -3zM513 713l473 444q55 53 90.5 89.5t40.5 58.5q3 20 -21 27l-79 22l6 46q101 -4 228 -4q115 0 214 4l-4 -43l-103 -32q-48 -15 -90 -46t-90 -73l-475 -446l331 -589q25 -42 48 -64.5t67 -36.5l101 -30l-6 -43q-88 3 -217 3q-34 0 -64.5 -0.5 t-66.5 -1.5q-21 72 -133 271z" />
<glyph unicode="L" horiz-adv-x="1117" d="M14 -3l4 43l125 37q27 7 34 31q8 40 18 89.5t22 109.5l155 811q10 51 17 92t12 74q5 26 -17 34l-121 39l6 43q132 -4 251 -4q117 0 242 4l-5 -43l-127 -37q-25 -6 -31 -31q-9 -35 -22 -102t-13 -65l-154 -813q-21 -111 -40 -221h475l170 266l49 8l-85 -358l-7 -7 q-227 3 -447 3h-266q-121 0 -245 -3z" />
<glyph unicode="M" horiz-adv-x="1827" d="M-15 -3l4 43l129 37q29 8 34 31q18 81 40 199l155 811q19 100 29 166q5 26 -17 34l-117 39l6 43q128 -4 203 -4q80 0 156 4l257 -1104l674 1104q89 -4 163 -4t200 4l-4 -43l-133 -39q-25 -8 -31 -34q-15 -66 -34 -166l-155 -811q-22 -118 -36 -199q-3 -23 21 -31l115 -37 l-6 -43q-132 3 -249 3q-119 0 -234 -3l4 43l120 35q26 7 33 35q17 79 39 197l166 866l-719 -1173l-59 -5l-272 1178l-166 -866q-22 -118 -35 -197q-5 -28 19 -35l105 -35l-6 -43q-118 3 -198 3q-72 0 -201 -3z" />
<glyph unicode="N" horiz-adv-x="1487" d="M-10 -3l4 43l125 37q29 8 34 31q9 41 19 90t21 109l150 811q9 51 16 92t12 74q5 27 -17 34l-121 39l6 43q66 -2 117 -3t86 -1q23 0 46 1t46 3l603 -1078l152 800q10 49 17.5 90.5t13.5 76.5q3 23 -21 31l-115 34l6 46q66 -2 117 -3t88 -1q40 0 90.5 1t111.5 3l-4 -43 l-130 -39q-24 -7 -30 -34q-8 -33 -16 -74t-18 -92l-213 -1118l-81 -8l-648 1151l-154 -836q-11 -60 -19.5 -108.5t-15.5 -87.5q-4 -28 18 -34l117 -35l-7 -45q-128 3 -202 3q-80 0 -204 -3z" />
<glyph unicode="O" horiz-adv-x="1595" d="M117 543q0 368 238.5 626.5t584.5 258.5q274 0 435.5 -150t161.5 -428q0 -371 -238.5 -628t-585.5 -257q-274 0 -435 151t-161 427zM331 517q0 -219 107.5 -345.5t294.5 -126.5q275 0 432 235.5t157 596.5q0 221 -109 346t-293 125q-275 0 -432 -237t-157 -594z" />
<glyph unicode="P" horiz-adv-x="1176" d="M14 -3l4 43l125 37q30 8 34 31q8 40 18 89.5t22 109.5l155 811q10 51 17 92t12 74q5 25 -17 34l-121 39l6 43q127 -4 219 -4q38 0 137 4t141 4q207 0 325.5 -86.5t118.5 -248.5q0 -237 -168.5 -363t-431.5 -126q-76 0 -148 12l-55 -285q-22 -119 -35 -196q-3 -24 20 -31 l133 -40l-6 -43q-147 3 -263 3q-118 0 -242 -3zM478 675q48 -12 123 -12q196 0 298 97.5t102 282.5q0 134 -75 206.5t-224 72.5q-55 0 -102 -11z" />
<glyph unicode="Q" horiz-adv-x="1596" d="M117 543q0 367 238 626t585 259q273 0 435 -149.5t162 -428.5q0 -358 -217 -603.5t-504 -274.5q79 -232 402 -232q132 0 236 42l11 -45q-199 -165 -317 -165q-366 0 -469 394q-251 10 -406.5 155.5t-155.5 421.5zM331 517q0 -219 107.5 -345.5t294.5 -126.5 q275 0 432 234.5t157 597.5q0 221 -109 346t-293 125q-275 0 -432 -237.5t-157 -593.5z" />
<glyph unicode="R" horiz-adv-x="1277" d="M14 -3l4 43l125 37q27 8 34 31q8 40 18 89.5t22 109.5l155 811q10 51 17 92t12 74q6 25 -17 34l-121 39l6 43q132 -4 254 -4q14 0 40.5 1.5t72.5 3.5t75.5 3t42.5 1q214 0 326.5 -80t112.5 -228q0 -318 -384 -415q27 -55 50 -109.5t45 -110.5q21 -53 42 -104t45 -105 q19 -46 38 -83t44.5 -63.5t60.5 -44t88 -25.5l-7 -44q-64 -9 -116 -9q-61 0 -104 8t-75 29t-57 57.5t-50 93.5q-19 44 -37 91t-35 97q-20 55 -40.5 111.5t-45.5 116.5q-9 20 -17.5 32.5t-18 20t-21.5 10t-27 2.5l-96 3l-66 -349q-12 -60 -20.5 -108t-14.5 -87q-4 -31 19 -39 l109 -33l-6 -43q-122 3 -237 3q-121 0 -245 -3zM490 729q57 -3 108 -3q188 0 287 87t99 256q0 129 -71.5 191.5t-204.5 62.5q-39 0 -107 -8z" />
<glyph unicode="S" horiz-adv-x="1043" d="M13 33l110 340l46 7l18 -293q97 -31 199 -31q168 0 270.5 76.5t102.5 205.5q0 64 -22.5 109t-60.5 79.5t-88.5 61.5t-105.5 55q-58 28 -109.5 62t-91.5 77t-64 98.5t-24 125.5q0 187 162.5 302t411.5 115q150 0 307 -38l6 -7l-112 -312l-41 -7l-22 257q-74 24 -159 24 q-156 0 -257.5 -75t-101.5 -199q0 -62 23.5 -106.5t63 -79t88.5 -60.5t102 -51q58 -29 110.5 -61.5t92.5 -74t64.5 -95.5t24.5 -126q0 -102 -41.5 -183.5t-124.5 -140.5q-166 -115 -420 -115q-195 0 -353 52z" />
<glyph unicode="T" horiz-adv-x="1232" d="M159 1034l39 358l8 8q244 -4 469 -4h242q225 0 475 4l5 -8l-126 -351l-41 -7l-19 275h-341l-190 -1000q-23 -118 -36 -194q-3 -24 21 -31l144 -44l-6 -43q-159 3 -274 3q-123 0 -275 -3l10 43l152 44q27 7 32 31q17 76 40 194l190 1000h-337l-139 -268z" />
<glyph unicode="U" horiz-adv-x="1496" d="M213 390q0 80 18 176l106 552q10 51 17 92t13 74q5 25 -18 34l-121 39l6 43q132 -4 248 -4q120 0 245 4l-4 -43l-127 -37q-26 -6 -32 -31q-8 -35 -16.5 -76.5t-18.5 -90.5l-99 -525q-23 -121 -23 -202q0 -156 79.5 -240.5t231.5 -84.5q115 0 193.5 35t132.5 103 t87.5 170.5t59.5 238.5l96 505q9 49 16 90.5t13 76.5q3 23 -20 31l-114 34l6 46q128 -4 212 -4q88 0 210 4l-4 -43l-129 -39q-25 -9 -31 -34q-7 -33 -15.5 -74t-17.5 -92l-99 -513q-31 -155 -77.5 -274t-119.5 -200.5t-176.5 -122.5t-246.5 -41q-233 0 -357 108.5 t-124 314.5z" />
<glyph unicode="V" horiz-adv-x="1365" d="M152 1357l6 43q126 -4 246 -4q116 0 255 4l-4 -43l-96 -29q-24 -7 -36 -19.5t-12 -43.5q0 -28 16 -117l151 -900l513 896q33 57 53 96.5t20 55.5q0 10 -8 18t-26 13l-89 27l6 46q126 -4 234 -4t197 4l-5 -43l-100 -32q-23 -7 -41.5 -19.5t-33.5 -28t-26 -31.5t-20 -32 l-717 -1214l-103 -8l-209 1206q-13 71 -27 95q-17 25 -52 35z" />
<glyph unicode="W" horiz-adv-x="2055" d="M161 1357l7 43q110 -4 229 -4q121 0 271 4l-4 -43l-109 -31q-36 -9 -36 -60q0 -27 12 -118l107 -859l568 1109l79 6l151 -1123l455 902q23 47 34.5 74.5t11.5 43.5q0 13 -7.5 18.5t-23.5 9.5l-92 25l6 46q119 -4 217 -4q107 0 206 4l-4 -43l-103 -32q-31 -9 -52.5 -28 t-46.5 -66l-656 -1231l-95 -8l-144 1065l-560 -1057l-95 -8l-163 1228q-6 47 -22 73t-50 36z" />
<glyph unicode="X" horiz-adv-x="1318" d="M-94 -3l4 43l101 31q37 11 67 36q29 24 72 71l462 530l-243 520q-22 49 -38.5 70t-52.5 31l-90 28l6 43q113 -4 256 -4q120 0 260 4l-4 -43l-90 -25q-49 -14 -49 -52q0 -33 36 -109l150 -323l292 343q64 75 64 107q1 23 -32 32l-88 24l6 46q111 -4 232 -4q117 0 216 4 l-4 -43l-103 -32q-39 -10 -68.5 -35.5t-80.5 -83.5l-390 -449l268 -576q32 -69 49 -86.5t49 -27.5l90 -27l-6 -43q-112 3 -233 3q-131 0 -284 -3l5 43l95 25q43 12 43 55q0 30 -36 106l-183 392l-353 -414q-63 -76 -63 -104q0 -25 37 -35l83 -23l-7 -45q-112 3 -232 3 q-106 0 -213 -3z" />
<glyph unicode="Y" horiz-adv-x="1212" d="M130 1357l6 43q94 -4 246 -4q122 0 263 4l-4 -43l-96 -26q-23 -5 -35 -17t-12 -33q0 -27 33 -110l176 -459l314 437q35 48 60.5 86.5t25.5 59.5q0 25 -37 35l-88 24l6 46q112 -4 226 -4q109 0 209 4l-4 -43l-103 -32q-39 -11 -62.5 -35t-50.5 -59l-463 -617l-59 -307 q-12 -60 -20.5 -109t-15.5 -89q-3 -25 28 -34l112 -35l-7 -43q-132 3 -250 3t-242 -3l4 43l125 37q27 7 34 31q8 40 18 89.5t22 109.5l57 303l-227 593q-26 61 -44 88t-55 38z" />
<glyph unicode="Z" horiz-adv-x="1162" d="M-20 -3l4 43l966 1269h-563l-103 -242l-42 -7l2 332l7 8q252 -4 472 -4h200q143 0 296 4l-4 -43l-964 -1269h593l173 272l49 7l-87 -363l-8 -7q-279 3 -498 3h-221q-141 0 -272 -3z" />
<glyph unicode="[" horiz-adv-x="707" d="M48 -356l391 1905h395l-7 -43l-261 -57l-349 -1705l235 -57l-7 -43h-397z" />
<glyph unicode="\" horiz-adv-x="805" d="M200 1426h117l390 -1652h-117z" />
<glyph unicode="]" horiz-adv-x="707" d="M-84 -356l7 43l260 57l349 1705l-235 57l7 43h397l-391 -1905h-394z" />
<glyph unicode="^" d="M125 582l390 814h121l390 -814h-129l-324 679l-323 -679h-125z" />
<glyph unicode="_" horiz-adv-x="1024" d="M-80 -178h1024v-90h-1024v90z" />
<glyph unicode="`" horiz-adv-x="840" d="M0 938zM331 1417h192l58 -373h-67z" />
<glyph unicode="a" horiz-adv-x="1052" d="M69 321q0 261 157 439.5t397 178.5q92 0 211 -37q49 11 115 36l11 -8q-13 -46 -32 -121t-70 -323l-63 -312q-4 -20 -4 -39q-1 -43 31 -59q28 -14 96 -13h18l-3 -39q-130 -42 -192 -42q-57 0 -91.5 34t-34.5 99q0 10 1 32q-100 -88 -171 -128.5t-100 -40.5 q-128 0 -202 98.5t-74 244.5zM257 367q0 -107 39.5 -181t111.5 -74q23 0 79 27t143 92l121 588q-73 42 -143 42q-147 0 -249 -154t-102 -340z" />
<glyph unicode="b" horiz-adv-x="1053" d="M86 34q13 51 23.5 99.5t60.5 295.5l192 943l-149 26v35q167 32 343 73l9 -12q-18 -75 -42.5 -192.5t-54.5 -255.5l-46 -225q210 116 275 116q116 0 195 -94t79 -249q0 -260 -160.5 -438.5t-400.5 -178.5q-179 0 -324 57zM270 78q80 -21 152 -21q152 0 256.5 152.5 t104.5 338.5q0 108 -40.5 183t-113.5 75q-93 0 -224 -64z" />
<glyph unicode="c" horiz-adv-x="936" d="M74 360q0 246 169.5 412t408.5 166q130 0 249 -53q-37 -141 -61 -269l-39 -6l-76 233q-42 12 -88 12q-164 0 -269.5 -135t-105.5 -329q0 -139 66.5 -214.5t188.5 -75.5q111 0 253 81l22 -34q-73 -78 -174.5 -123.5t-197.5 -45.5q-151 0 -248.5 102.5t-97.5 278.5z" />
<glyph unicode="d" horiz-adv-x="1062" d="M68 321q0 261 161.5 438.5t405.5 177.5q67 0 147 -13l93 448l-150 26v35q174 33 347 73l9 -12q-18 -75 -44 -192.5t-54 -256.5l-179 -871q-4 -20 -4 -39q0 -43 32 -59q28 -14 95 -13h18l-3 -39q-129 -42 -191 -42q-58 0 -92 34t-34 99q0 10 1 32q-103 -88 -175 -128.5 t-102 -40.5q-129 0 -205 98.5t-76 244.5zM256 367q0 -107 40.5 -181t114.5 -74q24 0 81.5 27t147.5 92l120 591q-74 37 -146 37q-150 0 -254 -153t-104 -339z" />
<glyph unicode="e" horiz-adv-x="916" d="M70 342q0 80 19.5 155t55 141.5t85 121.5t111 95t132.5 62t149 22q123 0 188.5 -52.5t65.5 -137.5q-1 -152 -186.5 -228.5t-427.5 -84.5q-4 -35 -4 -67q0 -129 63 -198.5t178 -69.5q131 0 268 74l22 -35q-68 -73 -173.5 -117.5t-209.5 -44.5q-151 0 -243.5 101.5 t-92.5 262.5zM273 509q213 14 320 75t107 157q0 53 -32 83t-87 30q-102 0 -186.5 -92.5t-121.5 -252.5z" />
<glyph unicode="f" horiz-adv-x="616" d="M-322 -474q17 94 41 178l7 3q132 -100 187 -100q118 0 171 293l168 917l-132 29l3 43l144 13l2 10q55 277 203 431.5t352 154.5q94 0 178 -27q-34 -115 -57 -249l-42 -7l-63 194q-18 5 -50 5q-119 0 -199 -101.5t-135 -374.5l-7 -35h252l-18 -90h-251l-154 -745 q-59 -297 -163 -429.5t-285 -132.5q-67 0 -152 20z" />
<glyph unicode="g" horiz-adv-x="1041" d="M-31 -446q15 94 46 190l7 3q207 -137 309 -137q52 0 90.5 24.5t71 77t60 136t51.5 202.5l19 92q-101 -80 -171.5 -117t-100.5 -37q-125 0 -203 96.5t-78 240.5q0 261 158.5 437.5t402.5 176.5q92 0 212 -37q24 5 53 14.5t63 21.5l10 -8q-6 -23 -14 -53.5t-16 -68.5 q-9 -36 -27.5 -117t-44.5 -205l-58 -282q-38 -184 -90 -316t-120 -218t-153 -126.5t-190 -40.5q-123 0 -287 51zM258 375q0 -110 40 -181t115 -71q64 0 229 108l120 588q-71 42 -145 42q-150 0 -254.5 -151.5t-104.5 -334.5z" />
<glyph unicode="h" horiz-adv-x="1127" d="M80 -5l283 1377l-150 26v35q171 32 346 73l8 -12q-18 -75 -42.5 -192.5t-52.5 -256.5l-49 -229q196 123 349 123q106 0 162.5 -56t56.5 -152q0 -45 -10 -92l-103 -475q-2 -11 -3 -20t-1 -16q0 -40 33 -52.5t112 -12.5l-3 -39q-128 -42 -202 -42q-58 0 -89 28.5t-31 88.5 q0 28 9 70l94 433q10 42 10 79q0 63 -32 98t-107 35q-121 0 -261 -82l-150 -727z" />
<glyph unicode="i" horiz-adv-x="557" d="M113 853l3 38q136 46 213 46q51 0 79.5 -23.5t28.5 -73.5q0 -21 -4 -41l-131 -635q-5 -20 -5 -36q0 -40 33 -52.5t112 -12.5l-3 -39q-130 -42 -202 -42q-56 0 -87.5 29t-31.5 88q0 28 8 70l120 583q3 17 5.5 29.5t2.5 22.5q0 27 -23 38t-118 11zM304 1290q0 53 32 84 t81 31q47 0 77 -28.5t30 -78.5q0 -52 -32 -84.5t-80 -32.5q-47 0 -77.5 30.5t-30.5 78.5z" />
<glyph unicode="j" horiz-adv-x="537" d="M-205 -462q203 197 246.5 302t73.5 251l136 661q3 17 5.5 29.5t2.5 22.5q0 27 -23 38t-119 11l3 38q137 46 214 46q51 0 79.5 -23.5t28.5 -73.5q0 -21 -4 -41l-142 -685q-39 -198 -130.5 -326.5t-332.5 -290.5zM308 1290q0 53 32 84t82 31q47 0 77 -28.5t30 -78.5 q0 -52 -32 -84.5t-80 -32.5t-78.5 30.5t-30.5 78.5z" />
<glyph unicode="k" horiz-adv-x="1048" d="M85 -5l283 1377l-150 26v35q86 16 172 34t174 39l8 -12q-18 -75 -42.5 -192.5t-52.5 -256.5l-215 -1040zM393 506q320 279 391 408q37 -1 61 -1q65 0 232 3l-4 -41q-53 -13 -89 -23.5t-62 -21.5q-28 -12 -55 -28t-62 -47l-230 -203l232 -386q38 -66 65 -89 q27 -22 100 -39l-6 -41q-138 3 -195 3q-18 0 -41.5 -0.5t-54.5 -1.5q-44 105 -114 231t-168 277z" />
<glyph unicode="l" horiz-adv-x="552" d="M103 99q0 14 1.5 31.5t6.5 38.5l248 1203l-150 26v35q174 33 348 73l8 -12q-18 -75 -43.5 -192.5t-54.5 -256.5l-180 -881q-4 -18 -4 -36q0 -40 34 -52.5t113 -12.5l-4 -39q-128 -42 -203 -42q-58 0 -89 28.5t-31 88.5z" />
<glyph unicode="m" horiz-adv-x="1709" d="M95 -5l156 755q8 45 8 54q0 25 -24 37t-117 12l3 38q133 46 213 46q50 0 78.5 -24.5t28.5 -68.5q0 -6 -0.5 -13t-1.5 -15q191 123 343 123q169 0 206 -142q205 142 370 142q105 0 160.5 -55.5t55.5 -152.5q0 -49 -11 -92l-103 -475q-2 -11 -3 -20t-1 -16q0 -40 33 -52.5 t112 -12.5l-3 -39q-123 -42 -198 -42q-59 0 -91 28.5t-32 88.5q0 14 2 31.5t6 38.5l95 433q9 43 9 80q0 65 -31.5 98.5t-104.5 33.5q-121 0 -258 -86q-1 -44 -9 -89l-130 -634l-180 -10l125 607q10 43 10 80q0 65 -30 98.5t-104 33.5q-117 0 -254 -82l-148 -727z" />
<glyph unicode="n" horiz-adv-x="1142" d="M95 -5l156 755q8 43 8 54q0 27 -23 38t-118 11l3 38q134 46 213 46q50 0 78.5 -24.5t28.5 -68.5q0 -12 -2 -28q195 123 348 123q106 0 163 -56t57 -152q0 -45 -11 -92l-103 -475q-2 -11 -3 -20t-1 -16q0 -40 33 -52.5t112 -12.5l-3 -39q-127 -42 -203 -42 q-58 0 -89.5 28.5t-31.5 88.5q0 28 8 70l98 433q9 43 9 80q0 63 -32 97.5t-107 34.5q-120 0 -260 -82l-148 -727z" />
<glyph unicode="o" horiz-adv-x="1072" d="M80 384q0 240 137 397t362 157q184 0 294 -111t110 -299q0 -237 -139 -392.5t-359 -155.5q-187 0 -296 110.5t-109 293.5zM330 146q59 -82 167 -82q138 0 217 144.5t79 334.5q0 147 -60 229t-166 82q-133 0 -215 -141q-82 -139 -82 -333q0 -150 60 -234z" />
<glyph unicode="p" horiz-adv-x="1069" d="M-128 -486l4 41l110 34q28 9 32 31q8 37 19.5 92t26.5 129l186 909q8 45 8 54q0 25 -24 37t-117 12l3 38q133 46 213 46q50 0 78.5 -24.5t28.5 -68.5q0 -5 -0.5 -11t-1.5 -12h1q211 116 275 116q115 0 194.5 -94t79.5 -249q0 -261 -163.5 -440t-415.5 -179q-67 0 -142 14 l-45 -221q-11 -50 -17.5 -84.5t-9.5 -55.5q-4 -30 20 -36l135 -37l-7 -41q-154 3 -239 3q-99 0 -232 -3zM286 73q67 -15 131 -15q174 0 278.5 152t104.5 338q0 109 -40.5 183.5t-113.5 74.5q-94 0 -224 -64z" />
<glyph unicode="q" horiz-adv-x="1044" d="M68 319q0 262 159.5 441t401.5 179q94 0 212 -37q50 11 116 36l10 -8q-12 -46 -30 -121t-72 -323l-135 -657q-34 -165 -41 -207q-4 -27 17 -34l111 -33l-6 -41q-126 3 -223 3q-100 0 -234 -3l4 41l122 34q26 8 33 31q26 121 108 522q-100 -84 -170 -124q-72 -40 -102 -40 q-129 0 -205 98.5t-76 242.5zM256 367q0 -107 40.5 -181t114.5 -74q24 0 81.5 27t147.5 92l120 588q-72 42 -145 42q-150 0 -254.5 -154t-104.5 -340z" />
<glyph unicode="r" horiz-adv-x="792" d="M95 -5l156 755q8 43 8 54q0 27 -23 38t-118 11l3 38q134 46 213 46q50 0 78.5 -24.5t28.5 -68.5q0 -7 -2 -28q204 123 359 123l5 -7q-32 -148 -64 -315l-40 -6q-23 96 -49 135t-84 39t-141 -43l-150 -737z" />
<glyph unicode="s" horiz-adv-x="865" d="M15 43q33 120 60 257l39 7l64 -223q70 -22 156 -22q98 0 157.5 43t59.5 119q0 32 -16 55.5t-42 42.5t-60 35.5t-71 32.5q-42 18 -83 39t-73.5 50t-53 69t-20.5 96q0 136 117 215t302 79q136 0 262 -47q-29 -101 -57 -246l-39 -7l-66 200q-54 17 -124 17 q-101 0 -164.5 -41.5t-63.5 -108.5q0 -37 17.5 -64t46 -48t66 -37.5t77.5 -33.5q43 -19 85.5 -39.5t76 -48t54 -64t20.5 -88.5q0 -141 -117.5 -222t-304.5 -81q-155 0 -305 64z" />
<glyph unicode="t" horiz-adv-x="738" d="M123 141q0 31 9 82q18 95 50 241t80 352l-133 30l2 43l164 14l107 250q51 12 112 30l8 -7q-32 -134 -63 -273h283l-20 -90h-280q-41 -167 -70.5 -299.5t-51.5 -234.5q-12 -59 -12 -91q0 -50 33.5 -76t101.5 -26q63 0 161 23l6 -45q-71 -38 -154.5 -60t-154.5 -22 q-87 0 -132.5 40.5t-45.5 118.5z" />
<glyph unicode="u" horiz-adv-x="1139" d="M102 853l4 38q134 46 213 46q51 0 79.5 -23.5t28.5 -73.5q0 -23 -4 -41l-99 -449q-10 -46 -10 -81q0 -76 38.5 -116t111.5 -40q97 0 252 124l139 669l179 11l-150 -726q-8 -35 -8 -56q0 -44 32 -59q28 -13 94 -13h19l-3 -39q-128 -42 -191 -42q-58 0 -92 33.5t-34 99.5 q0 18 1 37q-186 -174 -327 -174q-113 0 -174 68t-61 189q0 54 13 116l83 401q3 17 5.5 29.5t2.5 22.5q0 25 -24 37t-118 12z" />
<glyph unicode="v" horiz-adv-x="936" d="M-1 853l3 38q134 46 214 46q40 0 63 -14t35 -41q9 -24 18.5 -62.5t19 -85t18 -98.5t16.5 -102.5t14.5 -96t11.5 -81.5q6 -33 10 -75t9 -84q64 80 117.5 162t92 167t60 174.5t21.5 183.5q95 24 188 54l11 -8q0 -63 -28.5 -144t-74.5 -170t-105 -181t-120 -175.5t-119 -154 t-103 -118.5l-80 -8q-15 127 -31 242.5t-37 238.5q-6 37 -14.5 88.5t-19.5 101.5t-24.5 95.5t-30.5 65.5q-11 12 -22 20t-26.5 12t-36.5 6.5t-50 3.5z" />
<glyph unicode="w" horiz-adv-x="1424" d="M-1 853l3 38q131 46 214 46q40 0 63 -14t35 -41q9 -24 18.5 -62.5t19 -85t18 -98.5t16.5 -102.5t14.5 -96.5t11.5 -81q14 -117 18 -157q156 218 266 443q-21 124 -50 246q87 17 158 36l10 -6q12 -56 25.5 -130.5t26.5 -153t24 -152.5t18 -126q14 -117 18 -159 q63 80 114.5 162t88 167t57.5 174.5t21 183.5q99 24 188 54l11 -8q0 -63 -28 -144t-73 -170t-103 -181t-117.5 -175.5t-117 -154t-100.5 -118.5l-81 -8q-23 283 -67 529q-125 -233 -346 -521l-82 -8q-15 127 -31 242.5t-37 238.5q-6 37 -14.5 88.5t-19.5 101.5t-24.5 95.5 t-30.5 65.5q-11 12 -22.5 20t-26.5 12t-36 6.5t-50 3.5z" />
<glyph unicode="x" horiz-adv-x="1016" d="M-21 -9q27 105 54 180l5 3q45 -10 87 -10q36 0 67.5 9.5t66.5 37.5t77.5 80.5t100.5 140.5q-18 40 -37.5 85t-38.5 90t-37 86.5t-34 76.5q-13 28 -28 44.5t-35 24t-44.5 10.5t-57.5 4l3 38q136 46 205 46q29 0 45 -7.5t28.5 -21.5t23 -34.5t22.5 -46.5q22 -50 48 -110.5 t55 -126.5q66 94 115 159t94 105.5t90 58.5t102 18q39 0 69 -5q-20 -80 -56 -177l-5 -4q-44 13 -82 13q-32 0 -63 -10t-65.5 -38t-74 -76t-90.5 -124q43 -101 84.5 -195.5t74.5 -163.5q14 -31 26 -48t28.5 -26t42 -11t67.5 -3l-4 -39q-126 -42 -200 -42q-35 0 -61.5 15.5 t-48.5 63.5q-28 59 -60 135t-66 155q-74 -105 -125.5 -175.5t-96.5 -113t-90.5 -60.5t-107.5 -18q-37 0 -73 7z" />
<glyph unicode="y" horiz-adv-x="983" d="M-54 -454q57 7 103 24.5t80 45.5q20 16 43.5 42t57 70t77.5 109.5t105 162.5l-38 9q-7 55 -21 127t-33 150.5t-40 157.5t-42.5 146.5t-41 119t-34.5 74.5q-16 23 -33 37t-38 20t-46 8.5t-54 3.5l3 38q131 46 215 46q40 0 65.5 -14.5t39.5 -40.5q14 -25 32.5 -71.5 t37.5 -105.5t38 -128.5t36 -142t30 -144.5t21 -136q103 175 162.5 355t85.5 374q99 26 194 55l9 -8q-40 -143 -94.5 -275t-113.5 -249.5t-117.5 -218.5t-106.5 -181q-70 -111 -118.5 -218t-84.5 -193q-15 -34 -29 -52.5t-35 -28.5t-50.5 -13t-71.5 -3q-106 0 -189 10z" />
<glyph unicode="z" horiz-adv-x="996" d="M1 20q206 234 340.5 395.5t345.5 420.5h-367l-113 -217l-40 -6q1 58 1 110q0 104 -3 184l6 10q203 -4 395 -4q183 0 394 4l3 -22q-178 -203 -336 -396t-341 -419h381l160 223l43 6q-30 -156 -54 -305l-9 -7q-185 3 -423 3q-207 0 -378 -3z" />
<glyph unicode="{" horiz-adv-x="720" d="M103 580l5 34q94 17 142.5 56.5t72.5 156.5l94 461q28 138 96.5 204t229.5 66q28 0 76 -2l-7 -49q-109 -10 -155 -48.5t-65 -128.5l-82 -403q-32 -153 -86 -224t-165 -102l-1 -6q76 -25 105 -71t29 -117q0 -57 -17 -140l-68 -332q-21 -92 -21 -133q0 -51 33.5 -79 t119.5 -42l-7 -46q-165 0 -235 45.5t-70 149.5q0 45 13 110l88 427q10 46 10 83q0 58 -29.5 86.5t-105.5 43.5z" />
<glyph unicode="|" horiz-adv-x="712" d="M335 -508v2033h112v-2033h-112z" />
<glyph unicode="}" horiz-adv-x="720" d="M-58 -364l7 49q109 10 155 48.5t65 128.5l82 403q32 153 86 224t165 102l1 6q-76 25 -105 71t-29 117q0 57 17 140l68 332q21 92 21 133q0 51 -33.5 79t-119.5 42l7 46q165 0 235 -45.5t70 -149.5q0 -45 -13 -110l-88 -427q-10 -46 -10 -83q0 -58 29.5 -86.5t105.5 -43.5 l-5 -34q-94 -17 -142.5 -56.5t-72.5 -156.5l-94 -461q-28 -138 -96.5 -204t-229.5 -66q-28 0 -76 2z" />
<glyph unicode="~" d="M83 376v121q135 88 254 88q64 0 124.5 -20t119.5 -44q56 -23 109 -42t110 -19q96 0 227 87v-121q-127 -83 -246 -83q-64 0 -125.5 20t-121.5 44q-56 22 -109 40t-109 18q-98 0 -233 -89z" />
<glyph unicode="&#xa1;" horiz-adv-x="524" d="M-48 -443l287 953l64 1l-110 -948l-234 -14zM198 818q0 53 34 86.5t87 33.5q51 0 81 -33.5t30 -86.5t-33.5 -85.5t-79.5 -32.5q-58 0 -88.5 32.5t-30.5 85.5z" />
<glyph unicode="&#xa2;" horiz-adv-x="929" d="M74 362q0 216 143.5 382t377.5 193l29 137l79 8l-31 -143q116 -2 229 -52l-58 -247l-39 -6l-50 207q-55 14 -100 15l-163 -759q10 -1 23 -1q110 0 253 81l22 -34q-137 -141 -323 -167l-30 -137l-78 -8l31 144q-148 14 -231.5 119.5t-83.5 267.5zM262 393q0 -220 156 -282 l158 740q-140 -28 -227 -155.5t-87 -302.5z" />
<glyph unicode="&#xa3;" horiz-adv-x="991" d="M-58 -3l4 40q72 29 121 58.5t82.5 74.5t55 112.5t41.5 187.5h-150l16 79h148l25 144q16 90 55.5 159.5t98.5 116.5t135.5 71.5t165.5 24.5q105 0 208 -35l4 -5l-90 -270l-38 -6l-14 222q-52 18 -101 18q-105 0 -163.5 -72.5t-84.5 -213.5l-29 -154h275l-16 -79h-274 q-12 -62 -26.5 -105.5t-37.5 -79t-57 -69.5t-84 -78v-9h523l120 183l42 7l-80 -315l-9 -7q-161 3 -486 3q-112 0 -200 -0.5t-180 -2.5z" />
<glyph unicode="&#xa4;" d="M79 276l154 154q-85 112 -85 264q0 154 84 263l-153 154l79 79l154 -154q112 82 262 82q155 0 264 -83l155 155l79 -79l-155 -155q84 -115 84 -262q0 -144 -85 -263l156 -155l-79 -79l-156 156q-118 -82 -263 -82q-151 0 -261 81l-155 -155zM266 694q0 -141 85 -232 t223 -91t223.5 91.5t85.5 231.5q0 142 -86.5 233t-222.5 91q-134 0 -221 -89t-87 -235z" />
<glyph unicode="&#xa5;" horiz-adv-x="1076" d="M118 1003l6 39q44 -2 95.5 -2.5t122.5 -0.5q112 0 243 3l-3 -39l-89 -24q-22 -6 -33 -16t-11 -31q0 -28 34 -102l110 -248l173 228q34 45 57 80.5t23 54.5q0 24 -34 33l-82 22l6 42q103 -3 209 -3q51 0 94 0.5t90 2.5l-4 -39l-80 -30q-35 -13 -57 -34t-48 -53l-261 -323 h240l-16 -79h-280l-24 -126h281l-16 -79h-279q-14 -71 -19 -98.5t-13 -72.5q-2 -14 1.5 -23.5t23.5 -15.5l104 -32l-7 -40q-122 3 -231 3t-224 -3l4 40l115 34q28 9 32 29q8 37 17 81t19 98h-288l16 79h286l24 126h-288l16 79h244l-134 297q-12 28 -22 47.5t-19.5 33 t-21.5 22t-28 14.5z" />
<glyph unicode="&#xa6;" horiz-adv-x="742" d="M330 -68v671h142v-671h-142zM330 854v671h142v-671h-142z" />
<glyph unicode="&#xa7;" horiz-adv-x="1106" d="M15 -283l110 341l46 7l18 -295q97 -33 188 -33q115 0 178 50t63 132q0 59 -21 110.5t-55.5 98t-79 90.5t-90.5 88q-47 45 -92.5 90t-80.5 94.5t-56.5 104.5t-21.5 119q0 96 160 292q-17 51 -17 97q0 152 124.5 236t325.5 84q154 0 323 -38l5 -7l-112 -311l-41 -7l-22 256 q-75 28 -182 28q-112 0 -176.5 -48.5t-64.5 -133.5q0 -59 21 -110t55.5 -97.5t78 -90t89.5 -86.5q47 -45 92.5 -90.5t81 -95.5t57.5 -105.5t22 -119.5q0 -96 -160 -292q17 -48 17 -97q0 -153 -125 -236t-325 -83q-162 0 -329 51zM281 811q0 -60 17 -112t46.5 -99t68 -89.5 t80.5 -82.5l72 -68t70 -68.5t63.5 -71.5t51.5 -77q31 61 31 127q0 60 -17.5 112.5t-47 99.5t-68.5 89.5t-82 83.5q-35 34 -71 67.5t-69.5 68t-62.5 71t-51 76.5q-31 -61 -31 -127z" />
<glyph unicode="&#xa8;" horiz-adv-x="840" d="M0 938zM281 1297q0 51 30.5 81.5t76.5 30.5t74 -28t28 -77q0 -50 -30.5 -82t-75.5 -32t-74 29.5t-29 77.5zM654 1297q0 51 30.5 81.5t76.5 30.5q45 0 73.5 -28t28.5 -77q0 -50 -30.5 -82t-75.5 -32t-74 29.5t-29 77.5z" />
<glyph unicode="&#xa9;" horiz-adv-x="1631" d="M120 680q0 308 206 507t513 199q306 0 509 -201t203 -510q0 -296 -203 -494.5t-512 -198.5t-512.5 198.5t-203.5 499.5zM219 684q0 -273 172.5 -448.5t448.5 -175.5q271 0 442 174t171 450t-173.5 450t-442.5 174q-276 0 -447 -176t-171 -448zM445 679q0 183 128.5 289 t326.5 106q111 0 222 -34l5 -6l-50 -262l-31 -5l-59 218q-53 20 -112 20q-119 0 -188.5 -80t-69.5 -208q0 -142 90 -229t241 -87q95 0 201 46l8 -37q-129 -105 -295 -105q-181 0 -299 103.5t-118 270.5z" />
<glyph unicode="&#xaa;" horiz-adv-x="652" d="M76 418l14 75h548l-14 -75h-548zM129 842q0 151 94.5 254t229.5 103q58 0 134 -28q37 9 87 27l8 -6q-7 -24 -17.5 -63.5t-38.5 -171.5l-34 -166q-3 -15 -3 -29q0 -32 23.5 -43.5t85.5 -10.5l-2 -29q-98 -31 -144 -31q-43 0 -68.5 25t-25.5 74q0 8 1 18 q-115 -119 -166 -119q-73 0 -118.5 56t-45.5 140zM269 880q0 -57 21.5 -96t57.5 -39t121 89l57 281q-42 26 -83 26q-66 0 -120 -79t-54 -182z" />
<glyph unicode="&#xab;" horiz-adv-x="1014" d="M80 449v36q201 149 411 372l48 -26q-112 -179 -259 -362q101 -190 174 -375l-41 -24q-165 224 -333 379zM480 449v36q201 149 411 372l48 -26q-112 -179 -259 -362q101 -190 174 -375l-41 -24q-165 224 -333 379z" />
<glyph unicode="&#xac;" d="M43 401v121h944v-532h-121v411h-823z" />
<glyph unicode="&#xae;" horiz-adv-x="844" d="M187 1060q0 157 101.5 251.5t255.5 94.5q159 0 256 -92t97 -251q0 -162 -98.5 -257.5t-260.5 -95.5q-158 0 -254.5 95.5t-96.5 254.5zM257 1061q0 -140 78 -221t206 -81q130 0 207.5 77.5t77.5 224.5q0 136 -79 216t-208 80q-125 0 -203.5 -79t-78.5 -217zM351 911l49 14 q10 4 11 13q1 16 1 37v45v106v39t-1 31q-1 12 -12 15l-47 13l-1 19q26 -1 50.5 -1.5t49.5 -0.5q14 0 45.5 2t52.5 2q142 0 142 -88q0 -61 -79 -91q29 -44 47.5 -76.5t41.5 -55.5q12 -12 21 -16.5t30 -8.5l2 -16q-26 -6 -54 -6t-44.5 4.5t-31.5 16.5q-13 11 -32 43.5 t-37 62.5q-12 22 -19 27t-22 5h-19v-27v-44t1 -36q1 -15 9 -17l40 -11l1 -17q-25 1 -46.5 1h-44.5h-51t-51 -1zM495 1078q10 -1 26 -1q85 0 85 67q0 35 -19 51t-61 16q-12 0 -31 -2v-131z" />
<glyph unicode="&#xaf;" horiz-adv-x="840" d="M0 938zM296 1190l21 106h520l-21 -106h-520z" />
<glyph unicode="&#xb0;" horiz-adv-x="702" d="M110 1094q0 131 86.5 216.5t214.5 85.5t214.5 -85t86.5 -215t-87 -215t-214 -85q-128 0 -214.5 84t-86.5 214zM205 1095q0 -95 56.5 -153t149.5 -58q91 0 148.5 57.5t57.5 153.5q0 94 -57.5 153.5t-148.5 59.5q-93 0 -149.5 -59.5t-56.5 -153.5z" />
<glyph unicode="&#xb1;" d="M83 10v121h944v-121h-944zM83 562v121h412v332h121v-332h411v-121h-411v-331h-121v331h-412z" />
<glyph unicode="&#xb2;" horiz-adv-x="738" d="M92 655l6 49q121 90 216 163.5t161 138.5t100.5 125.5t34.5 126.5q0 64 -45 102t-120 38q-70 0 -161 -49l-17 51q129 85 267 85q106 0 168.5 -54.5t62.5 -135.5q0 -68 -36 -130t-101.5 -125.5t-158 -131.5t-205.5 -147v-3l345 2l71 108l39 7l-54 -215l-6 -4 q-110 2 -308 2q-138 0 -259 -3z" />
<glyph unicode="&#xb3;" horiz-adv-x="738" d="M117 636l3 56q87 2 166.5 16.5t141 44t98 73.5t36.5 106q0 66 -41.5 102.5t-119.5 36.5q-47 0 -95 -7l4 54q125 15 199.5 64t74.5 119q0 46 -37.5 76t-101.5 30q-80 0 -169 -46l-23 53q128 71 247 71q116 0 178 -44t62 -114q0 -72 -66.5 -123.5t-184.5 -81.5v-3 q106 0 167.5 -45.5t61.5 -126.5q0 -79 -51.5 -137t-136 -96.5t-192.5 -58t-221 -19.5z" />
<glyph unicode="&#xb4;" horiz-adv-x="840" d="M0 938zM464 1044l175 373h207l-312 -373h-70z" />
<glyph unicode="&#xb5;" horiz-adv-x="1101" d="M-44 -494l229 1136q31 150 42 264q96 18 194 44l8 -7q-33 -132 -64 -286l-70 -337q-8 -40 -8 -73q0 -141 148 -141q144 0 245 105l89 431q31 150 42 264q96 18 194 44l8 -7q-33 -132 -64 -286l-99 -477q-5 -26 -5 -44q0 -26 10.5 -40t31 -21t52 -9t73.5 -2l-3 -40 q-143 -42 -215 -42q-128 0 -128 126q0 12 1 23q-129 -152 -271 -152q-114 0 -167 102q-28 -179 -46 -317t-27 -238q-105 -11 -192 -27z" />
<glyph unicode="&#xb6;" horiz-adv-x="1172" d="M116 -298q16 99 41 198l7 3q84 -61 148 -91t110 -30q38 0 67.5 14.5t55 51t48.5 97.5t48.5 153.5t54.5 220.5t66 297l154 696l-89 3l-172 -752q-31 -2 -52 -2q-215 0 -348.5 119.5t-133.5 306.5q0 188 138 302.5t371 114.5q53 0 187.5 -4t171.5 -4q131 0 244 4l-4 -43 l-167 -38q-32 -6 -39.5 -29.5t-16.5 -74.5l-114 -644q-25 -141 -49.5 -261t-54 -219t-68 -175t-92 -128t-125 -79t-166.5 -27q-110 0 -221 20z" />
<glyph unicode="&#xb7;" horiz-adv-x="499" d="M129 500q0 54 34.5 87.5t81.5 33.5q60 0 91.5 -33.5t31.5 -87.5q0 -55 -35 -89.5t-90 -34.5q-52 0 -83 34.5t-31 89.5z" />
<glyph unicode="&#xb8;" horiz-adv-x="840" d="M157 -183l141 183h85l-82 -109q103 -49 103 -131q0 -110 -202 -246l-34 38q97 76 97 147q0 73 -105 110z" />
<glyph unicode="&#xb9;" horiz-adv-x="738" d="M204 656l2 33l139 26q15 3 18 18q8 31 14 64.5t14 70.5l48 244q15 77 26.5 144.5t18.5 122.5l-150 17l2 32q164 20 312 49l5 -4q-17 -63 -32 -136.5t-29 -146.5l-63 -314q-5 -26 -9 -45.5t-7 -36t-5.5 -31.5t-4.5 -32q-2 -14 9 -16l124 -26l-3 -33q-124 2 -219 2 q-90 0 -210 -2z" />
<glyph unicode="&#xba;" horiz-adv-x="653" d="M79 418l14 75h541l-14 -75h-541zM137 880q0 138 83.5 228.5t222.5 90.5q112 0 179.5 -64t67.5 -173q0 -136 -85 -226t-220 -90q-115 0 -181.5 64t-66.5 170zM279 877q1 -79 31 -123.5t86 -44.5q71 0 111.5 78t40.5 181q0 80 -31 124t-85 44q-69 0 -111.5 -76t-41.5 -183z " />
<glyph unicode="&#xbb;" horiz-adv-x="1014" d="M75 95q112 179 259 362q-101 190 -174 375l41 24q165 -224 333 -379v-36q-201 -149 -411 -372zM475 95q112 179 259 362q-101 190 -174 375l41 24q165 -224 333 -379v-36q-201 -149 -411 -372z" />
<glyph unicode="&#xbc;" horiz-adv-x="1687" d="M144 656l2 33l139 26q15 3 18 18q8 31 14 64.5t14 70.5l48 244q15 77 26.5 144.5t18.5 122.5l-150 17l2 32q164 20 312 49l5 -4q-17 -63 -32 -136.5t-29 -146.5l-63 -314q-5 -26 -9 -45.5t-7 -36t-5.5 -31.5t-4.5 -32q-2 -14 9 -16l124 -26l-3 -33q-124 2 -219 2 q-90 0 -210 -2zM285 0l1224 1477l63 -47l-1225 -1477zM946 210l5 60q51 66 114 141.5t127.5 149t126.5 140.5t111 117l97 4l2 -7q-38 -37 -80.5 -81t-87 -91.5t-88.5 -96t-84.5 -95t-74.5 -88t-59 -73.5h237l38 202l138 9l-40 -211h122l-13 -81q-53 2 -124 2l-25 -138 q-3 -19 11 -22l92 -19l-3 -34q-103 2 -181 2q-88 0 -185 -2l3 34l105 20q16 5 19 18q5 28 12 63.5t15 77.5h-147h-83.5t-99.5 -1z" />
<glyph unicode="&#xbd;" horiz-adv-x="1687" d="M144 656l2 33l139 26q15 3 18 18q8 31 14 64.5t14 70.5l48 244q15 77 26.5 144.5t18.5 122.5l-150 17l2 32q164 20 312 49l5 -4q-17 -63 -32 -136.5t-29 -146.5l-63 -314q-5 -26 -9 -45.5t-7 -36t-5.5 -31.5t-4.5 -32q-2 -14 9 -16l124 -26l-3 -33q-124 2 -219 2 q-90 0 -210 -2zM235 0l1224 1477l63 -47l-1225 -1477zM941 -3l6 49q121 90 216 163.5t161 138.5t100.5 125.5t34.5 126.5q0 64 -45 102t-120 38q-70 0 -161 -49l-17 51q129 85 267 85q106 0 168.5 -54.5t62.5 -135.5q0 -68 -36 -130t-101.5 -125.5t-158 -131.5t-205.5 -147 v-3l345 2l71 108l39 7l-54 -215l-6 -4q-110 2 -308 2q-138 0 -259 -3z" />
<glyph unicode="&#xbe;" horiz-adv-x="1687" d="M77 636l3 56q87 2 166.5 16.5t141 44t98 73.5t36.5 106q0 66 -41.5 102.5t-119.5 36.5q-47 0 -95 -7l4 54q125 15 199.5 64t74.5 119q0 46 -37.5 76t-101.5 30q-80 0 -169 -46l-23 53q128 71 247 71q116 0 178 -44t62 -114q0 -72 -66.5 -123.5t-184.5 -81.5v-3 q106 0 167.5 -45.5t61.5 -126.5q0 -79 -51.5 -137t-136 -96.5t-192.5 -58t-221 -19.5zM265 0l1224 1477l63 -47l-1225 -1477zM936 210l5 60q51 66 114 141.5t127.5 149t126.5 140.5t111 117l97 4l2 -7q-38 -37 -80.5 -81t-87 -91.5t-88.5 -96t-84.5 -95t-74.5 -88t-59 -73.5 h237l38 202l138 9l-40 -211h122l-13 -81q-53 2 -124 2l-25 -138q-3 -19 11 -22l92 -19l-3 -34q-103 2 -181 2q-88 0 -185 -2l3 34l105 20q16 5 19 18q5 28 12 63.5t15 77.5h-147h-83.5t-99.5 -1z" />
<glyph unicode="&#xbf;" horiz-adv-x="880" d="M-19 -236q0 64 23.5 118t61.5 100t85.5 86.5t95.5 77.5q41 32 78.5 62t66.5 60.5t46.5 62t17.5 65.5q0 45 -34 98l39 30q143 -134 143 -213q0 -35 -18.5 -68.5t-49.5 -66t-70.5 -64.5t-80.5 -64q-55 -42 -97.5 -77t-71.5 -68t-44 -67t-15 -74q0 -76 45.5 -117t127.5 -41 q73 0 148 29l102 228l41 7v-281q-183 -65 -332 -65q-145 0 -226.5 61t-81.5 181zM440 818q0 53 34 86.5t87 33.5q51 0 81 -33.5t30 -86.5t-33.5 -85.5t-79.5 -32.5q-58 0 -88.5 32.5t-30.5 85.5z" />
<glyph unicode="&#xc0;" horiz-adv-x="1353" d="M-138 -3l4 43l101 31q23 8 41.5 20.5t33 27.5t25.5 31.5t21 32.5l720 1223l98 15l211 -1223q10 -68 27 -94q17 -25 51 -36l93 -28l-6 -43q-126 3 -246 3q-117 0 -257 -3l4 43l95 28q21 7 34.5 18t13.5 43t-15 120l-44 271h-467l-152 -268q-32 -57 -52 -96t-20 -56 q0 -10 8 -17.5t26 -13.5l89 -27l-7 -45q-126 3 -234 3t-196 -3zM250 1400zM450 608h402l-90 551zM633 1636v15l107 119l301 -245l-23 -39z" />
<glyph unicode="&#xc1;" horiz-adv-x="1353" d="M-138 -3l4 43l101 31q23 8 41.5 20.5t33 27.5t25.5 31.5t21 32.5l720 1223l98 15l211 -1223q10 -68 27 -94q17 -25 51 -36l93 -28l-6 -43q-126 3 -246 3q-117 0 -257 -3l4 43l95 28q21 7 34.5 18t13.5 43t-15 120l-44 271h-467l-152 -268q-32 -57 -52 -96t-20 -56 q0 -10 8 -17.5t26 -13.5l89 -27l-7 -45q-126 3 -234 3t-196 -3zM250 1400zM450 608h402l-90 551zM672 1527l323 243l116 -119v-15l-416 -150z" />
<glyph unicode="&#xc2;" horiz-adv-x="1353" d="M-138 -3l4 43l101 31q23 8 41.5 20.5t33 27.5t25.5 31.5t21 32.5l720 1223l98 15l211 -1223q10 -68 27 -94q17 -25 51 -36l93 -28l-6 -43q-126 3 -246 3q-117 0 -257 -3l4 43l95 28q21 7 34.5 18t13.5 43t-15 120l-44 271h-467l-152 -268q-32 -57 -52 -96t-20 -56 q0 -10 8 -17.5t26 -13.5l89 -27l-7 -45q-126 3 -234 3t-196 -3zM250 1400zM450 608h402l-90 551zM533 1531l309 239h90l263 -239l-27 -46l-292 135l-317 -135z" />
<glyph unicode="&#xc3;" horiz-adv-x="1353" d="M-138 -3l4 43l101 31q23 8 41.5 20.5t33 27.5t25.5 31.5t21 32.5l720 1223l98 15l211 -1223q10 -68 27 -94q17 -25 51 -36l93 -28l-6 -43q-126 3 -246 3q-117 0 -257 -3l4 43l95 28q21 7 34.5 18t13.5 43t-15 120l-44 271h-467l-152 -268q-32 -57 -52 -96t-20 -56 q0 -10 8 -17.5t26 -13.5l89 -27l-7 -45q-126 3 -234 3t-196 -3zM250 1400zM450 608h402l-90 551zM570 1565q60 96 116 145.5t111 49.5q30 0 63.5 -16t67.5 -36q31 -17 58 -31t48 -14q39 0 70 24.5t70 69.5l48 -32q-61 -101 -117 -150.5t-111 -49.5q-30 0 -64 16t-66 35 q-30 17 -57.5 31.5t-49.5 14.5q-38 0 -69.5 -24.5t-70.5 -69.5z" />
<glyph unicode="&#xc4;" horiz-adv-x="1353" d="M-138 -3l4 43l101 31q23 8 41.5 20.5t33 27.5t25.5 31.5t21 32.5l720 1223l98 15l211 -1223q10 -68 27 -94q17 -25 51 -36l93 -28l-6 -43q-126 3 -246 3q-117 0 -257 -3l4 43l95 28q21 7 34.5 18t13.5 43t-15 120l-44 271h-467l-152 -268q-32 -57 -52 -96t-20 -56 q0 -10 8 -17.5t26 -13.5l89 -27l-7 -45q-126 3 -234 3t-196 -3zM250 1400zM450 608h402l-90 551zM574 1622q0 52 30.5 82.5t77.5 30.5q45 0 73 -28t28 -77q0 -51 -30.5 -83t-75.5 -32t-74 30t-29 77zM983 1622q0 52 30.5 82.5t76.5 30.5q45 0 73.5 -28t28.5 -77 q0 -51 -30.5 -83t-75.5 -32t-74 30t-29 77z" />
<glyph unicode="&#xc5;" horiz-adv-x="1353" d="M-138 -3l4 43l101 31q23 8 41.5 20.5t33 27.5t25.5 31.5t21 32.5l720 1223l98 15l211 -1223q10 -68 27 -94q17 -25 51 -36l93 -28l-6 -43q-126 3 -246 3q-117 0 -257 -3l4 43l95 28q21 7 34.5 18t13.5 43t-15 120l-44 271h-467l-152 -268q-32 -57 -52 -96t-20 -56 q0 -10 8 -17.5t26 -13.5l89 -27l-7 -45q-126 3 -234 3t-196 -3zM250 1400zM450 608h402l-90 551zM672 1623q0 92 73.5 152.5t171.5 60.5q79 0 133 -41.5t54 -111.5q0 -92 -70 -151t-173 -59q-87 0 -138 39.5t-51 110.5zM781 1633q0 -44 23 -73t68 -29q56 0 89.5 40.5 t33.5 103.5q0 46 -22 74.5t-67 28.5q-58 0 -91.5 -41t-33.5 -104z" />
<glyph unicode="&#xc6;" horiz-adv-x="1840" d="M-149 -3l4 43l106 31q24 8 43.5 20.5t35.5 27.5t29.5 31.5t24.5 32.5l773 1093q7 10 7 17q0 10 -15 15l-150 49l6 43q132 -4 254 -4h445q224 0 474 4l5 -8l-113 -309l-42 -7l-19 233h-445l-109 -574h101q72 0 200 1q28 2 39 27l62 136l54 2q-31 -144 -44 -211 q-12 -65 -35 -200l-54 -4l-11 138q-2 26 -25 27q-88 2 -203 2h-100l-65 -344q-21 -111 -40 -221h467l160 256l49 8l-83 -348l-7 -7q-258 3 -478 3h-219q-121 0 -245 -3l4 43l125 37q27 7 34 31q8 40 18 89.5t22 109.5l66 346h-411l-278 -403q-40 -57 -64.5 -96t-25.5 -56 q-2 -10 5 -17.5t24 -13.5l86 -27l-4 -43q-133 3 -240 3t-198 -3zM603 735h369l110 574h-84z" />
<glyph unicode="&#xc7;" horiz-adv-x="1320" d="M117 562q0 378 255 619.5t640 241.5q166 0 354 -41l5 -8l-116 -323l-41 -6l-23 265q-100 29 -219 29q-280 0 -462 -222.5t-182 -534.5q0 -233 134 -365.5t366 -132.5q151 0 314 57l12 -41q-202 -130 -448 -130l-60 -79q103 -49 103 -131q0 -110 -202 -246l-34 38 q97 76 97 147q0 73 -105 110l-3 8l122 158q-236 27 -371.5 184.5t-135.5 402.5z" />
<glyph unicode="&#xc8;" horiz-adv-x="1166" d="M14 -3l4 43l125 37q27 7 34 31q8 40 18 89.5t22 109.5l155 811q10 51 17 92t12 74q5 26 -17 34l-121 39l6 43q132 -4 251 -4h220q224 0 474 4l5 -8l-113 -309l-42 -7l-19 233h-445l-105 -553h101q72 0 200 1q28 2 39 27l62 136l54 2q-31 -144 -44 -211q-12 -65 -35 -200 l-54 -4l-11 138q-2 26 -25 27q-88 2 -203 2h-100l-69 -365q-21 -111 -40 -221h467l160 256l49 8l-83 -348l-7 -7q-258 3 -478 3h-219q-121 0 -245 -3zM170 1400zM553 1636v15l107 119l301 -245l-23 -39z" />
<glyph unicode="&#xc9;" horiz-adv-x="1166" d="M14 -3l4 43l125 37q27 7 34 31q8 40 18 89.5t22 109.5l155 811q10 51 17 92t12 74q5 26 -17 34l-121 39l6 43q132 -4 251 -4h220q224 0 474 4l5 -8l-113 -309l-42 -7l-19 233h-445l-105 -553h101q72 0 200 1q28 2 39 27l62 136l54 2q-31 -144 -44 -211q-12 -65 -35 -200 l-54 -4l-11 138q-2 26 -25 27q-88 2 -203 2h-100l-69 -365q-21 -111 -40 -221h467l160 256l49 8l-83 -348l-7 -7q-258 3 -478 3h-219q-121 0 -245 -3zM170 1400zM592 1527l323 243l116 -119v-15l-416 -150z" />
<glyph unicode="&#xca;" horiz-adv-x="1166" d="M14 -3l4 43l125 37q27 7 34 31q8 40 18 89.5t22 109.5l155 811q10 51 17 92t12 74q5 26 -17 34l-121 39l6 43q132 -4 251 -4h220q224 0 474 4l5 -8l-113 -309l-42 -7l-19 233h-445l-105 -553h101q72 0 200 1q28 2 39 27l62 136l54 2q-31 -144 -44 -211q-12 -65 -35 -200 l-54 -4l-11 138q-2 26 -25 27q-88 2 -203 2h-100l-69 -365q-21 -111 -40 -221h467l160 256l49 8l-83 -348l-7 -7q-258 3 -478 3h-219q-121 0 -245 -3zM170 1400zM453 1531l309 239h90l263 -239l-27 -46l-292 135l-317 -135z" />
<glyph unicode="&#xcb;" horiz-adv-x="1166" d="M14 -3l4 43l125 37q27 7 34 31q8 40 18 89.5t22 109.5l155 811q10 51 17 92t12 74q5 26 -17 34l-121 39l6 43q132 -4 251 -4h220q224 0 474 4l5 -8l-113 -309l-42 -7l-19 233h-445l-105 -553h101q72 0 200 1q28 2 39 27l62 136l54 2q-31 -144 -44 -211q-12 -65 -35 -200 l-54 -4l-11 138q-2 26 -25 27q-88 2 -203 2h-100l-69 -365q-21 -111 -40 -221h467l160 256l49 8l-83 -348l-7 -7q-258 3 -478 3h-219q-121 0 -245 -3zM170 1400zM494 1622q0 52 30.5 82.5t77.5 30.5q45 0 73 -28t28 -77q0 -51 -30.5 -83t-75.5 -32t-74 30t-29 77zM903 1622 q0 52 30.5 82.5t76.5 30.5q45 0 73.5 -28t28.5 -77q0 -51 -30.5 -83t-75.5 -32t-74 30t-29 77z" />
<glyph unicode="&#xcc;" horiz-adv-x="692" d="M-88 1400zM14 -3l4 43l125 37q27 7 34 31q8 40 18 89.5t22 109.5l155 811q10 51 17 92t12 74q5 26 -17 34l-121 39l6 43q132 -4 250 -4t243 4l-5 -43l-127 -37q-25 -6 -31 -31q-9 -35 -17 -76.5t-18 -90.5l-155 -815q-12 -60 -20.5 -109t-15.5 -89q-3 -25 28 -34l112 -35 l-7 -43q-132 3 -246 3q-122 0 -246 -3zM295 1636v15l107 119l301 -245l-23 -39z" />
<glyph unicode="&#xcd;" horiz-adv-x="692" d="M-88 1400zM14 -3l4 43l125 37q27 7 34 31q8 40 18 89.5t22 109.5l155 811q10 51 17 92t12 74q5 26 -17 34l-121 39l6 43q132 -4 250 -4t243 4l-5 -43l-127 -37q-25 -6 -31 -31q-9 -35 -17 -76.5t-18 -90.5l-155 -815q-12 -60 -20.5 -109t-15.5 -89q-3 -25 28 -34l112 -35 l-7 -43q-132 3 -246 3q-122 0 -246 -3zM334 1527l323 243l116 -119v-15l-416 -150z" />
<glyph unicode="&#xce;" horiz-adv-x="692" d="M-77 1400zM14 -3l4 43l125 37q27 7 34 31q8 40 18 89.5t22 109.5l155 811q10 51 17 92t12 74q5 26 -17 34l-121 39l6 43q132 -4 250 -4t243 4l-5 -43l-127 -37q-25 -6 -31 -31q-9 -35 -17 -76.5t-18 -90.5l-155 -815q-12 -60 -20.5 -109t-15.5 -89q-3 -25 28 -34l112 -35 l-7 -43q-132 3 -246 3q-122 0 -246 -3zM206 1531l309 239h90l263 -239l-27 -46l-292 135l-317 -135z" />
<glyph unicode="&#xcf;" horiz-adv-x="692" d="M-77 1400zM14 -3l4 43l125 37q27 7 34 31q8 40 18 89.5t22 109.5l155 811q10 51 17 92t12 74q5 26 -17 34l-121 39l6 43q132 -4 250 -4t243 4l-5 -43l-127 -37q-25 -6 -31 -31q-9 -35 -17 -76.5t-18 -90.5l-155 -815q-12 -60 -20.5 -109t-15.5 -89q-3 -25 28 -34l112 -35 l-7 -43q-132 3 -246 3q-122 0 -246 -3zM247 1622q0 52 30.5 82.5t77.5 30.5q45 0 73 -28t28 -77q0 -51 -30.5 -83t-75.5 -32t-74 30t-29 77zM656 1622q0 52 30.5 82.5t76.5 30.5q45 0 73.5 -28t28.5 -77q0 -51 -30.5 -83t-75.5 -32t-74 30t-29 77z" />
<glyph unicode="&#xd0;" horiz-adv-x="1537" d="M14 -3l4 43l125 37q30 8 34 31q8 40 18 89.5t22 109.5l73 385h-151l17 89h151l65 337q10 51 17 92t12 74q5 25 -17 34l-121 39l6 43q132 -4 254 -4q59 0 156.5 5t164.5 5q298 0 464 -136t166 -393q0 -394 -247 -638.5t-662 -244.5q-53 0 -151 3t-155 3q-121 0 -245 -3z M368 86q93 -14 222 -14q307 0 490.5 231t183.5 579q0 222 -111.5 332t-341.5 110q-90 0 -210 -8l-101 -535h326l-17 -89h-326z" />
<glyph unicode="&#xd1;" horiz-adv-x="1487" d="M-10 -3l4 43l125 37q29 8 34 31q9 41 19 90t21 109l150 811q9 51 16 92t12 74q5 27 -17 34l-121 39l6 43q66 -2 117 -3t86 -1q23 0 46 1t46 3l603 -1078l152 800q10 49 17.5 90.5t13.5 76.5q3 23 -21 31l-115 34l6 46q66 -2 117 -3t88 -1q40 0 90.5 1t111.5 3l-4 -43 l-130 -39q-24 -7 -30 -34q-8 -33 -16 -74t-18 -92l-213 -1118l-81 -8l-648 1151l-154 -836q-11 -60 -19.5 -108.5t-15.5 -87.5q-4 -28 18 -34l117 -35l-7 -45q-128 3 -202 3q-80 0 -204 -3zM320 1400zM640 1565q60 96 116 145.5t111 49.5q30 0 63.5 -16t67.5 -36 q31 -17 58 -31t48 -14q39 0 70 24.5t70 69.5l48 -32q-61 -101 -117 -150.5t-111 -49.5q-30 0 -64 16t-66 35q-30 17 -57.5 31.5t-49.5 14.5q-38 0 -69.5 -24.5t-70.5 -69.5z" />
<glyph unicode="&#xd2;" horiz-adv-x="1595" d="M117 543q0 368 238.5 626.5t584.5 258.5q274 0 435.5 -150t161.5 -428q0 -371 -238.5 -628t-585.5 -257q-274 0 -435 151t-161 427zM331 517q0 -219 107.5 -345.5t294.5 -126.5q275 0 432 235.5t157 596.5q0 221 -109 346t-293 125q-275 0 -432 -237t-157 -594zM340 1400 zM723 1636v15l107 119l301 -245l-23 -39z" />
<glyph unicode="&#xd3;" horiz-adv-x="1595" d="M117 543q0 368 238.5 626.5t584.5 258.5q274 0 435.5 -150t161.5 -428q0 -371 -238.5 -628t-585.5 -257q-274 0 -435 151t-161 427zM331 517q0 -219 107.5 -345.5t294.5 -126.5q275 0 432 235.5t157 596.5q0 221 -109 346t-293 125q-275 0 -432 -237t-157 -594zM340 1400 zM762 1527l323 243l116 -119v-15l-416 -150z" />
<glyph unicode="&#xd4;" horiz-adv-x="1595" d="M117 543q0 368 238.5 626.5t584.5 258.5q274 0 435.5 -150t161.5 -428q0 -371 -238.5 -628t-585.5 -257q-274 0 -435 151t-161 427zM331 517q0 -219 107.5 -345.5t294.5 -126.5q275 0 432 235.5t157 596.5q0 221 -109 346t-293 125q-275 0 -432 -237t-157 -594zM340 1400 zM623 1531l309 239h90l263 -239l-27 -46l-292 135l-317 -135z" />
<glyph unicode="&#xd5;" horiz-adv-x="1595" d="M117 543q0 368 238.5 626.5t584.5 258.5q274 0 435.5 -150t161.5 -428q0 -371 -238.5 -628t-585.5 -257q-274 0 -435 151t-161 427zM331 517q0 -219 107.5 -345.5t294.5 -126.5q275 0 432 235.5t157 596.5q0 221 -109 346t-293 125q-275 0 -432 -237t-157 -594zM340 1400 zM660 1565q60 96 116 145.5t111 49.5q30 0 63.5 -16t67.5 -36q31 -17 58 -31t48 -14q39 0 70 24.5t70 69.5l48 -32q-61 -101 -117 -150.5t-111 -49.5q-30 0 -64 16t-66 35q-30 17 -57.5 31.5t-49.5 14.5q-38 0 -69.5 -24.5t-70.5 -69.5z" />
<glyph unicode="&#xd6;" horiz-adv-x="1595" d="M117 543q0 368 238.5 626.5t584.5 258.5q274 0 435.5 -150t161.5 -428q0 -371 -238.5 -628t-585.5 -257q-274 0 -435 151t-161 427zM331 517q0 -219 107.5 -345.5t294.5 -126.5q275 0 432 235.5t157 596.5q0 221 -109 346t-293 125q-275 0 -432 -237t-157 -594zM340 1400 zM664 1622q0 52 30.5 82.5t77.5 30.5q45 0 73 -28t28 -77q0 -51 -30.5 -83t-75.5 -32t-74 30t-29 77zM1073 1622q0 52 30.5 82.5t76.5 30.5q45 0 73.5 -28t28.5 -77q0 -51 -30.5 -83t-75.5 -32t-74 30t-29 77z" />
<glyph unicode="&#xd7;" d="M98 833l86 85l371 -371l371 371l86 -85l-371 -372l370 -370l-85 -86l-371 371l-371 -371l-85 86l370 370z" />
<glyph unicode="&#xd8;" horiz-adv-x="1595" d="M98 -39l161 174q-142 149 -142 408q0 368 238.5 626.5t584.5 258.5q247 0 402 -122l154 166l67 -49l-160 -173q134 -147 134 -400q0 -371 -238.5 -628t-585.5 -257q-240 0 -394 115l-160 -173zM329 517q0 -147 50 -252l858 927q-110 157 -317 157q-275 0 -433 -237.5 t-158 -594.5zM422 191q110 -147 311 -147q275 0 433 236t158 597q0 139 -45 239z" />
<glyph unicode="&#xd9;" horiz-adv-x="1496" d="M213 390q0 80 18 176l106 552q10 51 17 92t13 74q5 25 -18 34l-121 39l6 43q132 -4 248 -4q120 0 245 4l-4 -43l-127 -37q-26 -6 -32 -31q-8 -35 -16.5 -76.5t-18.5 -90.5l-99 -525q-23 -121 -23 -202q0 -156 79.5 -240.5t231.5 -84.5q115 0 193.5 35t132.5 103 t87.5 170.5t59.5 238.5l96 505q9 49 16 90.5t13 76.5q3 23 -20 31l-114 34l6 46q128 -4 212 -4q88 0 210 4l-4 -43l-129 -39q-25 -9 -31 -34q-7 -33 -15.5 -74t-17.5 -92l-99 -513q-31 -155 -77.5 -274t-119.5 -200.5t-176.5 -122.5t-246.5 -41q-233 0 -357 108.5 t-124 314.5zM335 1400zM718 1636v15l107 119l301 -245l-23 -39z" />
<glyph unicode="&#xda;" horiz-adv-x="1496" d="M213 390q0 80 18 176l106 552q10 51 17 92t13 74q5 25 -18 34l-121 39l6 43q132 -4 248 -4q120 0 245 4l-4 -43l-127 -37q-26 -6 -32 -31q-8 -35 -16.5 -76.5t-18.5 -90.5l-99 -525q-23 -121 -23 -202q0 -156 79.5 -240.5t231.5 -84.5q115 0 193.5 35t132.5 103 t87.5 170.5t59.5 238.5l96 505q9 49 16 90.5t13 76.5q3 23 -20 31l-114 34l6 46q128 -4 212 -4q88 0 210 4l-4 -43l-129 -39q-25 -9 -31 -34q-7 -33 -15.5 -74t-17.5 -92l-99 -513q-31 -155 -77.5 -274t-119.5 -200.5t-176.5 -122.5t-246.5 -41q-233 0 -357 108.5 t-124 314.5zM335 1400zM757 1527l323 243l116 -119v-15l-416 -150z" />
<glyph unicode="&#xdb;" horiz-adv-x="1496" d="M213 390q0 80 18 176l106 552q10 51 17 92t13 74q5 25 -18 34l-121 39l6 43q132 -4 248 -4q120 0 245 4l-4 -43l-127 -37q-26 -6 -32 -31q-8 -35 -16.5 -76.5t-18.5 -90.5l-99 -525q-23 -121 -23 -202q0 -156 79.5 -240.5t231.5 -84.5q115 0 193.5 35t132.5 103 t87.5 170.5t59.5 238.5l96 505q9 49 16 90.5t13 76.5q3 23 -20 31l-114 34l6 46q128 -4 212 -4q88 0 210 4l-4 -43l-129 -39q-25 -9 -31 -34q-7 -33 -15.5 -74t-17.5 -92l-99 -513q-31 -155 -77.5 -274t-119.5 -200.5t-176.5 -122.5t-246.5 -41q-233 0 -357 108.5 t-124 314.5zM335 1400zM618 1531l309 239h90l263 -239l-27 -46l-292 135l-317 -135z" />
<glyph unicode="&#xdc;" horiz-adv-x="1496" d="M213 390q0 80 18 176l106 552q10 51 17 92t13 74q5 25 -18 34l-121 39l6 43q132 -4 248 -4q120 0 245 4l-4 -43l-127 -37q-26 -6 -32 -31q-8 -35 -16.5 -76.5t-18.5 -90.5l-99 -525q-23 -121 -23 -202q0 -156 79.5 -240.5t231.5 -84.5q115 0 193.5 35t132.5 103 t87.5 170.5t59.5 238.5l96 505q9 49 16 90.5t13 76.5q3 23 -20 31l-114 34l6 46q128 -4 212 -4q88 0 210 4l-4 -43l-129 -39q-25 -9 -31 -34q-7 -33 -15.5 -74t-17.5 -92l-99 -513q-31 -155 -77.5 -274t-119.5 -200.5t-176.5 -122.5t-246.5 -41q-233 0 -357 108.5 t-124 314.5zM335 1400zM659 1622q0 52 30.5 82.5t77.5 30.5q45 0 73 -28t28 -77q0 -51 -30.5 -83t-75.5 -32t-74 30t-29 77zM1068 1622q0 52 30.5 82.5t76.5 30.5q45 0 73.5 -28t28.5 -77q0 -51 -30.5 -83t-75.5 -32t-74 30t-29 77z" />
<glyph unicode="&#xdd;" horiz-adv-x="1212" d="M130 1357l6 43q94 -4 246 -4q122 0 263 4l-4 -43l-96 -26q-23 -5 -35 -17t-12 -33q0 -27 33 -110l176 -459l314 437q35 48 60.5 86.5t25.5 59.5q0 25 -37 35l-88 24l6 46q112 -4 226 -4q109 0 209 4l-4 -43l-103 -32q-39 -11 -62.5 -35t-50.5 -59l-463 -617l-59 -307 q-12 -60 -20.5 -109t-15.5 -89q-3 -25 28 -34l112 -35l-7 -43q-132 3 -250 3t-242 -3l4 43l125 37q27 7 34 31q8 40 18 89.5t22 109.5l57 303l-227 593q-26 61 -44 88t-55 38zM200 1400zM622 1527l323 243l116 -119v-15l-416 -150z" />
<glyph unicode="&#xde;" horiz-adv-x="1181" d="M14 -3l4 43l125 37q27 7 34 31q8 40 18 89.5t22 109.5l155 811q10 51 17 92t12 74q5 26 -17 34l-121 39l6 43q132 -4 250 -4t243 4l-5 -43l-127 -37q-25 -6 -31 -31q-9 -35 -16 -70t-15 -76q103 7 149 7q207 0 325.5 -86.5t118.5 -248.5q0 -237 -168.5 -363t-431.5 -126 q-75 0 -146 11l-6 -30q-12 -60 -20.5 -109t-15.5 -89q-3 -25 28 -34l112 -35l-7 -43q-132 3 -246 3q-122 0 -246 -3zM431 420q47 -11 121 -11q196 0 298 97.5t102 282.5q0 134 -75 206.5t-224 72.5q-54 0 -102 -11z" />
<glyph unicode="&#xdf;" horiz-adv-x="1209" d="M-322 -474q17 94 41 178l7 3q132 -100 187 -100q118 0 171 293l168 917l-132 29l3 43l144 13l2 10q55 277 203 431.5t352 154.5q149 0 222 -73.5t73 -209.5q0 -94 -37 -219q-365 -79 -365 -229q0 -33 15.5 -61.5t41.5 -54t59.5 -49.5t68.5 -49q39 -27 76.5 -56t67.5 -62 t48.5 -72t18.5 -86q0 -140 -118.5 -218.5t-299.5 -78.5q-156 0 -295 61l53 247l39 7l62 -211q75 -23 147 -23q98 0 160 42.5t62 125.5q0 36 -15 65t-40 54.5t-57 48.5t-66 46q-35 24 -69 48.5t-61 53.5t-43.5 63.5t-16.5 77.5q0 227 367 339q28 94 28 172q0 120 -41 170 t-118 50q-119 0 -199.5 -103t-135.5 -376l-178 -870q-59 -297 -163 -429.5t-285 -132.5q-67 0 -152 20z" />
<glyph unicode="&#xe0;" horiz-adv-x="1052" d="M69 321q0 261 157 439.5t397 178.5q92 0 211 -37q49 11 115 36l11 -8q-13 -46 -32 -121t-70 -323l-63 -312q-4 -20 -4 -39q0 -43 31.5 -58.5t113.5 -13.5l-3 -39q-130 -42 -192 -42q-57 0 -91.5 34t-34.5 99q0 10 1 32q-100 -88 -171 -128.5t-100 -40.5q-128 0 -202 98.5 t-74 244.5zM112 938zM257 367q0 -107 39.5 -181t111.5 -74q23 0 79 27t143 92l121 588q-73 42 -143 42q-147 0 -249 -154t-102 -340zM443 1417h192l58 -373h-67z" />
<glyph unicode="&#xe1;" horiz-adv-x="1052" d="M69 321q0 261 157 439.5t397 178.5q92 0 211 -37q49 11 115 36l11 -8q-13 -46 -32 -121t-70 -323l-63 -312q-4 -20 -4 -39q0 -43 31.5 -58.5t113.5 -13.5l-3 -39q-130 -42 -192 -42q-57 0 -91.5 34t-34.5 99q0 10 1 32q-100 -88 -171 -128.5t-100 -40.5q-128 0 -202 98.5 t-74 244.5zM112 938zM257 367q0 -107 39.5 -181t111.5 -74q23 0 79 27t143 92l121 588q-73 42 -143 42q-147 0 -249 -154t-102 -340zM576 1044l175 373h207l-312 -373h-70z" />
<glyph unicode="&#xe2;" horiz-adv-x="1052" d="M69 321q0 261 157 439.5t397 178.5q92 0 211 -37q49 11 115 36l11 -8q-13 -46 -32 -121t-70 -323l-63 -312q-4 -20 -4 -39q0 -43 31.5 -58.5t113.5 -13.5l-3 -39q-130 -42 -192 -42q-57 0 -91.5 34t-34.5 99q0 10 1 32q-100 -88 -171 -128.5t-100 -40.5q-128 0 -202 98.5 t-74 244.5zM112 938zM257 367q0 -107 39.5 -181t111.5 -74q23 0 79 27t143 92l121 588q-73 42 -143 42q-147 0 -249 -154t-102 -340zM352 1044l283 373h147l150 -373h-72l-176 229l-256 -229h-76z" />
<glyph unicode="&#xe3;" horiz-adv-x="1052" d="M69 321q0 261 157 439.5t397 178.5q92 0 211 -37q49 11 115 36l11 -8q-13 -46 -32 -121t-70 -323l-63 -312q-4 -20 -4 -39q0 -43 31.5 -58.5t113.5 -13.5l-3 -39q-130 -42 -192 -42q-57 0 -91.5 34t-34.5 99q0 10 1 32q-100 -88 -171 -128.5t-100 -40.5q-128 0 -202 98.5 t-74 244.5zM112 938zM257 367q0 -107 39.5 -181t111.5 -74q23 0 79 27t143 92l121 588q-73 42 -143 42q-147 0 -249 -154t-102 -340zM345 1156q62 100 120 151.5t115 51.5q31 0 66 -17t70 -37q32 -18 60 -32.5t50 -14.5q40 0 72.5 25.5t72.5 72.5l50 -34 q-63 -104 -121 -155.5t-115 -51.5q-32 0 -67 16.5t-68 36.5q-31 18 -59.5 33t-51.5 15q-40 0 -72.5 -25.5t-72.5 -72.5z" />
<glyph unicode="&#xe4;" horiz-adv-x="1052" d="M69 321q0 261 157 439.5t397 178.5q92 0 211 -37q49 11 115 36l11 -8q-13 -46 -32 -121t-70 -323l-63 -312q-4 -20 -4 -39q0 -43 31.5 -58.5t113.5 -13.5l-3 -39q-130 -42 -192 -42q-57 0 -91.5 34t-34.5 99q0 10 1 32q-100 -88 -171 -128.5t-100 -40.5q-128 0 -202 98.5 t-74 244.5zM112 938zM257 367q0 -107 39.5 -181t111.5 -74q23 0 79 27t143 92l121 588q-73 42 -143 42q-147 0 -249 -154t-102 -340zM393 1297q0 51 30.5 81.5t76.5 30.5t74 -28t28 -77q0 -50 -30.5 -82t-75.5 -32t-74 29.5t-29 77.5zM766 1297q0 51 30.5 81.5t76.5 30.5 q45 0 73.5 -28t28.5 -77q0 -50 -30.5 -82t-75.5 -32t-74 29.5t-29 77.5z" />
<glyph unicode="&#xe5;" horiz-adv-x="1052" d="M69 321q0 261 157 439.5t397 178.5q92 0 211 -37q49 11 115 36l11 -8q-13 -46 -32 -121t-70 -323l-63 -312q-4 -20 -4 -39q0 -43 31.5 -58.5t113.5 -13.5l-3 -39q-130 -42 -192 -42q-57 0 -91.5 34t-34.5 99q0 10 1 32q-100 -88 -171 -128.5t-100 -40.5q-128 0 -202 98.5 t-74 244.5zM112 938zM257 367q0 -107 39.5 -181t111.5 -74q23 0 79 27t143 92l121 588q-73 42 -143 42q-147 0 -249 -154t-102 -340zM449 1201q0 96 77 159.5t179 63.5q83 0 139.5 -43.5t56.5 -116.5q0 -97 -73.5 -158.5t-180.5 -61.5q-91 0 -144.5 41.5t-53.5 115.5z M561 1211q0 -46 25 -76t72 -30q59 0 95 42t36 108q0 48 -24 78t-71 30q-61 0 -97 -43t-36 -109z" />
<glyph unicode="&#xe6;" horiz-adv-x="1491" d="M69 321q0 261 154.5 439.5t390.5 178.5q136 0 312 -77q126 77 271 77q123 0 188.5 -52.5t65.5 -137.5q-1 -152 -186.5 -228.5t-427.5 -84.5q-4 -35 -4 -67q0 -129 63 -198.5t178 -69.5q131 0 268 74l22 -35q-68 -73 -173.5 -117.5t-209.5 -44.5q-226 0 -315 221 q-140 -134 -216 -177.5t-111 -43.5q-125 0 -197.5 98.5t-72.5 244.5zM257 367q0 -107 38 -181t108 -74q66 0 248 148q-6 39 -6 82q0 243 172 432q-125 87 -218 87q-143 0 -242.5 -154t-99.5 -340zM848 509q213 14 320 75t107 157q0 53 -32 83t-87 30q-102 0 -186.5 -92.5 t-121.5 -252.5z" />
<glyph unicode="&#xe7;" horiz-adv-x="936" d="M74 360q0 246 169.5 412t408.5 166q130 0 249 -53q-37 -141 -61 -269l-39 -6l-76 233q-42 12 -88 12q-164 0 -269.5 -135t-105.5 -329q0 -139 66.5 -214.5t188.5 -75.5q111 0 253 81l22 -34q-73 -77 -167.5 -120t-176.5 -48l-67 -89q103 -49 103 -131q0 -110 -202 -246 l-34 38q97 76 97 147q0 73 -105 110l-3 8l127 166q-128 18 -209 117.5t-81 259.5z" />
<glyph unicode="&#xe8;" horiz-adv-x="916" d="M70 342q0 80 19.5 155t55 141.5t85 121.5t111 95t132.5 62t149 22q123 0 188.5 -52.5t65.5 -137.5q-1 -152 -186.5 -228.5t-427.5 -84.5q-4 -35 -4 -67q0 -129 63 -198.5t178 -69.5q131 0 268 74l22 -35q-68 -73 -173.5 -117.5t-209.5 -44.5q-151 0 -243.5 101.5 t-92.5 262.5zM81 938zM273 509q213 14 320 75t107 157q0 53 -32 83t-87 30q-102 0 -186.5 -92.5t-121.5 -252.5zM412 1417h192l58 -373h-67z" />
<glyph unicode="&#xe9;" horiz-adv-x="916" d="M70 342q0 80 19.5 155t55 141.5t85 121.5t111 95t132.5 62t149 22q123 0 188.5 -52.5t65.5 -137.5q-1 -152 -186.5 -228.5t-427.5 -84.5q-4 -35 -4 -67q0 -129 63 -198.5t178 -69.5q131 0 268 74l22 -35q-68 -73 -173.5 -117.5t-209.5 -44.5q-151 0 -243.5 101.5 t-92.5 262.5zM81 938zM273 509q213 14 320 75t107 157q0 53 -32 83t-87 30q-102 0 -186.5 -92.5t-121.5 -252.5zM545 1044l175 373h207l-312 -373h-70z" />
<glyph unicode="&#xea;" horiz-adv-x="916" d="M70 342q0 80 19.5 155t55 141.5t85 121.5t111 95t132.5 62t149 22q123 0 188.5 -52.5t65.5 -137.5q-1 -152 -186.5 -228.5t-427.5 -84.5q-4 -35 -4 -67q0 -129 63 -198.5t178 -69.5q131 0 268 74l22 -35q-68 -73 -173.5 -117.5t-209.5 -44.5q-151 0 -243.5 101.5 t-92.5 262.5zM81 938zM273 509q213 14 320 75t107 157q0 53 -32 83t-87 30q-102 0 -186.5 -92.5t-121.5 -252.5zM321 1044l283 373h147l150 -373h-72l-176 229l-256 -229h-76z" />
<glyph unicode="&#xeb;" horiz-adv-x="916" d="M70 342q0 80 19.5 155t55 141.5t85 121.5t111 95t132.5 62t149 22q123 0 188.5 -52.5t65.5 -137.5q-1 -152 -186.5 -228.5t-427.5 -84.5q-4 -35 -4 -67q0 -129 63 -198.5t178 -69.5q131 0 268 74l22 -35q-68 -73 -173.5 -117.5t-209.5 -44.5q-151 0 -243.5 101.5 t-92.5 262.5zM81 938zM273 509q213 14 320 75t107 157q0 53 -32 83t-87 30q-102 0 -186.5 -92.5t-121.5 -252.5zM362 1297q0 51 30.5 81.5t76.5 30.5t74 -28t28 -77q0 -50 -30.5 -82t-75.5 -32t-74 29.5t-29 77.5zM735 1297q0 51 30.5 81.5t76.5 30.5q45 0 73.5 -28 t28.5 -77q0 -50 -30.5 -82t-75.5 -32t-74 29.5t-29 77.5z" />
<glyph unicode="&#xec;" horiz-adv-x="557" d="M-187 938zM113 853l3 38q136 46 213 46q51 0 79.5 -23.5t28.5 -73.5q0 -21 -4 -41l-131 -635q-5 -20 -5 -36q0 -40 33 -52.5t112 -12.5l-3 -39q-130 -42 -202 -42q-56 0 -87.5 29t-31.5 88q0 28 8 70l120 583q3 17 5.5 29.5t2.5 22.5q0 27 -23 38t-118 11zM144 1417h192 l58 -373h-67z" />
<glyph unicode="&#xed;" horiz-adv-x="557" d="M-187 938zM113 853l3 38q136 46 213 46q51 0 79.5 -23.5t28.5 -73.5q0 -21 -4 -41l-131 -635q-5 -20 -5 -36q0 -40 33 -52.5t112 -12.5l-3 -39q-130 -42 -202 -42q-56 0 -87.5 29t-31.5 88q0 28 8 70l120 583q3 17 5.5 29.5t2.5 22.5q0 27 -23 38t-118 11zM277 1044 l175 373h207l-312 -373h-70z" />
<glyph unicode="&#xee;" horiz-adv-x="557" d="M-187 938zM53 1044l283 373h147l150 -373h-72l-176 229l-256 -229h-76zM113 853l3 38q136 46 213 46q51 0 79.5 -23.5t28.5 -73.5q0 -21 -4 -41l-131 -635q-5 -20 -5 -36q0 -40 33 -52.5t112 -12.5l-3 -39q-130 -42 -202 -42q-56 0 -87.5 29t-31.5 88q0 28 8 70l120 583 q3 17 5.5 29.5t2.5 22.5q0 27 -23 38t-118 11z" />
<glyph unicode="&#xef;" horiz-adv-x="557" d="M-187 938zM94 1297q0 51 30.5 81.5t76.5 30.5t74 -28t28 -77q0 -50 -30.5 -82t-75.5 -32t-74 29.5t-29 77.5zM113 853l3 38q136 46 213 46q51 0 79.5 -23.5t28.5 -73.5q0 -21 -4 -41l-131 -635q-5 -20 -5 -36q0 -40 33 -52.5t112 -12.5l-3 -39q-130 -42 -202 -42 q-56 0 -87.5 29t-31.5 88q0 28 8 70l120 583q3 17 5.5 29.5t2.5 22.5q0 27 -23 38t-118 11zM467 1297q0 51 30.5 81.5t76.5 30.5q45 0 73.5 -28t28.5 -77q0 -50 -30.5 -82t-75.5 -32t-74 29.5t-29 77.5z" />
<glyph unicode="&#xf0;" horiz-adv-x="1079" d="M77 376q0 229 133 384t343 155q160 0 264 -111l5 2q-21 214 -149 383l-311 -154l-35 73l293 144q-100 110 -275 212l2 12h230q116 -77 189 -153l261 128l36 -70l-242 -120q178 -216 178 -553q0 -324 -135.5 -526t-381.5 -202q-185 0 -295 107.5t-110 288.5zM267 367 q1 -143 60.5 -223t166.5 -80q135 0 211 139t76 328q0 144 -57.5 223.5t-163.5 79.5q-133 0 -213 -136t-80 -331z" />
<glyph unicode="&#xf1;" horiz-adv-x="1142" d="M95 -5l156 755q8 43 8 54q0 27 -23 38t-118 11l3 38q134 46 213 46q50 0 78.5 -24.5t28.5 -68.5q0 -12 -2 -28q195 123 348 123q106 0 163 -56t57 -152q0 -45 -11 -92l-103 -475q-2 -11 -3 -20t-1 -16q0 -40 33 -52.5t112 -12.5l-3 -39q-127 -42 -203 -42 q-58 0 -89.5 28.5t-31.5 88.5q0 28 8 70l98 433q9 43 9 80q0 63 -32 97.5t-107 34.5q-120 0 -260 -82l-148 -727zM145 938zM378 1156q62 100 120 151.5t115 51.5q31 0 66 -17t70 -37q32 -18 60 -32.5t50 -14.5q40 0 72.5 25.5t72.5 72.5l50 -34q-63 -104 -121 -155.5 t-115 -51.5q-32 0 -67 16.5t-68 36.5q-31 18 -59.5 33t-51.5 15q-40 0 -72.5 -25.5t-72.5 -72.5z" />
<glyph unicode="&#xf2;" horiz-adv-x="1072" d="M79 938zM80 384q0 240 137 397t362 157q184 0 294 -111t110 -299q0 -237 -139 -392.5t-359 -155.5q-187 0 -296 110.5t-109 293.5zM270 375q1 -146 60 -228.5t167 -82.5q138 0 217 144.5t79 334.5q0 147 -60 229t-166 82q-133 0 -215.5 -141t-81.5 -338zM410 1417h192 l58 -373h-67z" />
<glyph unicode="&#xf3;" horiz-adv-x="1072" d="M79 938zM80 384q0 240 137 397t362 157q184 0 294 -111t110 -299q0 -237 -139 -392.5t-359 -155.5q-187 0 -296 110.5t-109 293.5zM270 375q1 -146 60 -228.5t167 -82.5q138 0 217 144.5t79 334.5q0 147 -60 229t-166 82q-133 0 -215.5 -141t-81.5 -338zM543 1044 l175 373h207l-312 -373h-70z" />
<glyph unicode="&#xf4;" horiz-adv-x="1072" d="M79 938zM80 384q0 240 137 397t362 157q184 0 294 -111t110 -299q0 -237 -139 -392.5t-359 -155.5q-187 0 -296 110.5t-109 293.5zM270 375q1 -146 60 -228.5t167 -82.5q138 0 217 144.5t79 334.5q0 147 -60 229t-166 82q-133 0 -215.5 -141t-81.5 -338zM319 1044 l283 373h147l150 -373h-72l-176 229l-256 -229h-76z" />
<glyph unicode="&#xf5;" horiz-adv-x="1072" d="M79 938zM80 384q0 240 137 397t362 157q184 0 294 -111t110 -299q0 -237 -139 -392.5t-359 -155.5q-187 0 -296 110.5t-109 293.5zM270 375q1 -146 60 -228.5t167 -82.5q138 0 217 144.5t79 334.5q0 147 -60 229t-166 82q-133 0 -215.5 -141t-81.5 -338zM312 1156 q62 100 120 151.5t115 51.5q31 0 66 -17t70 -37q32 -18 60 -32.5t50 -14.5q40 0 72.5 25.5t72.5 72.5l50 -34q-63 -104 -121 -155.5t-115 -51.5q-32 0 -67 16.5t-68 36.5q-31 18 -59.5 33t-51.5 15q-40 0 -72.5 -25.5t-72.5 -72.5z" />
<glyph unicode="&#xf6;" horiz-adv-x="1072" d="M79 938zM80 384q0 240 137 397t362 157q184 0 294 -111t110 -299q0 -237 -139 -392.5t-359 -155.5q-187 0 -296 110.5t-109 293.5zM270 375q1 -146 60 -228.5t167 -82.5q138 0 217 144.5t79 334.5q0 147 -60 229t-166 82q-133 0 -215.5 -141t-81.5 -338zM360 1297 q0 51 30.5 81.5t76.5 30.5t74 -28t28 -77q0 -50 -30.5 -82t-75.5 -32t-74 29.5t-29 77.5zM733 1297q0 51 30.5 81.5t76.5 30.5q45 0 73.5 -28t28.5 -77q0 -50 -30.5 -82t-75.5 -32t-74 29.5t-29 77.5z" />
<glyph unicode="&#xf7;" d="M83 401v121h944v-121h-944zM440 144q0 51 32 82.5t84 31.5q50 0 82.5 -31.5t32.5 -82.5t-32.5 -83t-82.5 -32q-52 0 -84 32t-32 83zM440 790q0 51 32 82.5t84 31.5q50 0 82.5 -31.5t32.5 -82.5t-32.5 -83t-82.5 -32q-52 0 -84 32t-32 83z" />
<glyph unicode="&#xf8;" horiz-adv-x="1072" d="M80 384q0 240 137 397t362 157q142 0 239 -66l89 110l57 -44l-90 -112q109 -111 109 -298q0 -237 -139 -392.5t-359 -155.5q-143 0 -240 64l-92 -115l-58 43l94 118q-109 111 -109 294zM267 375q0 -91 24 -158l445 553q-61 86 -169 86q-133 0 -217 -142t-83 -339z M328 146q61 -84 169 -84q138 0 218.5 145.5t80.5 335.5q0 90 -24 157z" />
<glyph unicode="&#xf9;" horiz-adv-x="1139" d="M102 853l4 38q134 46 213 46q51 0 79.5 -23.5t28.5 -73.5q0 -23 -4 -41l-99 -449q-10 -46 -10 -81q0 -76 38.5 -116t111.5 -40q97 0 252 124l139 669l179 11l-150 -726q-8 -35 -8 -56q0 -44 31.5 -59t113.5 -13l-3 -39q-128 -42 -191 -42q-58 0 -92 33.5t-34 99.5 q0 18 1 37q-186 -174 -327 -174q-113 0 -174 68t-61 189q0 54 13 116l83 401q3 17 5.5 29.5t2.5 22.5q0 25 -24 37t-118 12zM125 938zM456 1417h192l58 -373h-67z" />
<glyph unicode="&#xfa;" horiz-adv-x="1139" d="M102 853l4 38q134 46 213 46q51 0 79.5 -23.5t28.5 -73.5q0 -23 -4 -41l-99 -449q-10 -46 -10 -81q0 -76 38.5 -116t111.5 -40q97 0 252 124l139 669l179 11l-150 -726q-8 -35 -8 -56q0 -44 31.5 -59t113.5 -13l-3 -39q-128 -42 -191 -42q-58 0 -92 33.5t-34 99.5 q0 18 1 37q-186 -174 -327 -174q-113 0 -174 68t-61 189q0 54 13 116l83 401q3 17 5.5 29.5t2.5 22.5q0 25 -24 37t-118 12zM125 938zM589 1044l175 373h207l-312 -373h-70z" />
<glyph unicode="&#xfb;" horiz-adv-x="1139" d="M102 853l4 38q134 46 213 46q51 0 79.5 -23.5t28.5 -73.5q0 -23 -4 -41l-99 -449q-10 -46 -10 -81q0 -76 38.5 -116t111.5 -40q97 0 252 124l139 669l179 11l-150 -726q-8 -35 -8 -56q0 -44 31.5 -59t113.5 -13l-3 -39q-128 -42 -191 -42q-58 0 -92 33.5t-34 99.5 q0 18 1 37q-186 -174 -327 -174q-113 0 -174 68t-61 189q0 54 13 116l83 401q3 17 5.5 29.5t2.5 22.5q0 25 -24 37t-118 12zM125 938zM365 1044l283 373h147l150 -373h-72l-176 229l-256 -229h-76z" />
<glyph unicode="&#xfc;" horiz-adv-x="1139" d="M102 853l4 38q134 46 213 46q51 0 79.5 -23.5t28.5 -73.5q0 -23 -4 -41l-99 -449q-10 -46 -10 -81q0 -76 38.5 -116t111.5 -40q97 0 252 124l139 669l179 11l-150 -726q-8 -35 -8 -56q0 -44 31.5 -59t113.5 -13l-3 -39q-128 -42 -191 -42q-58 0 -92 33.5t-34 99.5 q0 18 1 37q-186 -174 -327 -174q-113 0 -174 68t-61 189q0 54 13 116l83 401q3 17 5.5 29.5t2.5 22.5q0 25 -24 37t-118 12zM125 938zM406 1297q0 51 30.5 81.5t76.5 30.5t74 -28t28 -77q0 -50 -30.5 -82t-75.5 -32t-74 29.5t-29 77.5zM779 1297q0 51 30.5 81.5t76.5 30.5 q45 0 73.5 -28t28.5 -77q0 -50 -30.5 -82t-75.5 -32t-74 29.5t-29 77.5z" />
<glyph unicode="&#xfd;" horiz-adv-x="983" d="M-54 -454q57 7 103 24.5t80 45.5q20 16 43.5 42t57 70t77.5 109.5t105 162.5l-38 9q-7 55 -21 127t-33 150.5t-40 157.5t-42.5 146.5t-41 119t-34.5 74.5q-16 23 -33 37t-38 20t-46 8.5t-54 3.5l3 38q131 46 215 46q40 0 65.5 -14.5t39.5 -40.5q14 -25 32.5 -71.5 t37.5 -105.5t38 -128.5t36 -142t30 -144.5t21 -136q103 175 162.5 355t85.5 374q99 26 194 55l9 -8q-40 -143 -94.5 -275t-113.5 -249.5t-117.5 -218.5t-106.5 -181q-70 -111 -118.5 -218t-84.5 -193q-15 -34 -29 -52.5t-35 -28.5t-50.5 -13t-71.5 -3q-106 0 -189 10z M20 938zM484 1044l175 373h207l-312 -373h-70z" />
<glyph unicode="&#xfe;" horiz-adv-x="1052" d="M-143 -486l4 41l111 34q27 9 31 31q8 37 20 92t26 129l121 588l192 943l-149 26v35q167 32 343 73l9 -12q-18 -75 -42.5 -192.5t-54.5 -255.5l-46 -225q210 116 275 116q116 0 195 -94t79 -249q0 -260 -162.5 -439.5t-414.5 -179.5q-68 0 -143 14l-45 -221 q-11 -50 -17 -84.5t-10 -55.5q-4 -30 20 -36l135 -37l-7 -41q-154 3 -239 3q-98 0 -231 -3zM270 73q70 -15 127 -15q178 0 282 151.5t104 338.5q0 108 -40.5 183t-113.5 75q-93 0 -224 -64z" />
<glyph unicode="&#xff;" horiz-adv-x="983" d="M-54 -454q57 7 103 24.5t80 45.5q20 16 43.5 42t57 70t77.5 109.5t105 162.5l-38 9q-7 55 -21 127t-33 150.5t-40 157.5t-42.5 146.5t-41 119t-34.5 74.5q-16 23 -33 37t-38 20t-46 8.5t-54 3.5l3 38q131 46 215 46q40 0 65.5 -14.5t39.5 -40.5q14 -25 32.5 -71.5 t37.5 -105.5t38 -128.5t36 -142t30 -144.5t21 -136q103 175 162.5 355t85.5 374q99 26 194 55l9 -8q-40 -143 -94.5 -275t-113.5 -249.5t-117.5 -218.5t-106.5 -181q-70 -111 -118.5 -218t-84.5 -193q-15 -34 -29 -52.5t-35 -28.5t-50.5 -13t-71.5 -3q-106 0 -189 10z M20 938zM301 1297q0 51 30.5 81.5t76.5 30.5t74 -28t28 -77q0 -50 -30.5 -82t-75.5 -32t-74 29.5t-29 77.5zM674 1297q0 51 30.5 81.5t76.5 30.5q45 0 73.5 -28t28.5 -77q0 -50 -30.5 -82t-75.5 -32t-74 29.5t-29 77.5z" />
<glyph unicode="&#x152;" horiz-adv-x="1976" d="M116 560q0 361 240 614t601 253q136 0 278 -31h315q112 0 230 1t244 3l5 -8l-113 -309l-42 -7l-19 233h-445l-105 -553h101h86t114 1q28 1 39 27l62 136l54 2q-16 -72 -26.5 -124.5t-17.5 -86.5q-6 -32 -15 -82t-20 -118l-54 -4l-11 138q-1 25 -25 27q-45 1 -95 1.5 t-108 0.5h-100l-69 -365q-11 -56 -20.5 -111t-19.5 -110h467l160 256l49 8l-83 -348l-7 -7q-258 3 -478 3h-316q-123 -35 -260 -35q-280 0 -438 159t-158 436zM330 550q0 -233 103 -369t299 -136q142 0 253 55q10 48 20 97.5t22 109.5l155 811q10 51 17 92t12 75 q-128 63 -267 63q-286 0 -450 -227.5t-164 -570.5z" />
<glyph unicode="&#x153;" horiz-adv-x="1611" d="M80 384q0 240 134.5 397t355.5 157q240 0 345 -189q170 190 402 190q123 0 188.5 -52.5t65.5 -137.5q-1 -152 -186.5 -228.5t-427.5 -84.5q-4 -35 -4 -67q0 -129 63 -198.5t178 -69.5q131 0 268 74l22 -35q-68 -73 -173.5 -117.5t-209.5 -44.5q-183 0 -281 149 q-135 -147 -343 -147q-183 0 -290 110.5t-107 293.5zM270 375q1 -146 58.5 -228.5t161.5 -82.5q135 0 211.5 144.5t76.5 334.5q0 147 -58.5 229t-161.5 82q-129 0 -209 -141t-79 -338zM968 509q213 14 320 75t107 157q0 53 -32 83t-87 30q-102 0 -186.5 -92.5t-121.5 -252.5 z" />
<glyph unicode="&#x178;" horiz-adv-x="1212" d="M130 1357l6 43q94 -4 246 -4q122 0 263 4l-4 -43l-96 -26q-23 -5 -35 -17t-12 -33q0 -27 33 -110l176 -459l314 437q35 48 60.5 86.5t25.5 59.5q0 25 -37 35l-88 24l6 46q112 -4 226 -4q109 0 209 4l-4 -43l-103 -32q-39 -11 -62.5 -35t-50.5 -59l-463 -617l-59 -307 q-12 -60 -20.5 -109t-15.5 -89q-3 -25 28 -34l112 -35l-7 -43q-132 3 -250 3t-242 -3l4 43l125 37q27 7 34 31q8 40 18 89.5t22 109.5l57 303l-227 593q-26 61 -44 88t-55 38zM200 1400zM524 1622q0 52 30.5 82.5t77.5 30.5q45 0 73 -28t28 -77q0 -51 -30.5 -83t-75.5 -32 t-74 30t-29 77zM933 1622q0 52 30.5 82.5t76.5 30.5q45 0 73.5 -28t28.5 -77q0 -51 -30.5 -83t-75.5 -32t-74 30t-29 77z" />
<glyph unicode="&#x2c6;" horiz-adv-x="840" d="M0 938zM240 1044l283 373h147l150 -373h-72l-176 229l-256 -229h-76z" />
<glyph unicode="&#x2dc;" horiz-adv-x="840" d="M0 938zM233 1156q62 100 120 151.5t115 51.5q31 0 66 -17t70 -37q32 -18 60 -32.5t50 -14.5q40 0 72.5 25.5t72.5 72.5l50 -34q-63 -104 -121 -155.5t-115 -51.5q-32 0 -67 16.5t-68 36.5q-31 18 -59.5 33t-51.5 15q-40 0 -72.5 -25.5t-72.5 -72.5z" />
<glyph unicode="&#x2000;" horiz-adv-x="918" />
<glyph unicode="&#x2001;" horiz-adv-x="1836" />
<glyph unicode="&#x2002;" horiz-adv-x="918" />
<glyph unicode="&#x2003;" horiz-adv-x="1836" />
<glyph unicode="&#x2004;" horiz-adv-x="612" />
<glyph unicode="&#x2005;" horiz-adv-x="459" />
<glyph unicode="&#x2006;" horiz-adv-x="306" />
<glyph unicode="&#x2007;" horiz-adv-x="306" />
<glyph unicode="&#x2008;" horiz-adv-x="229" />
<glyph unicode="&#x2009;" horiz-adv-x="367" />
<glyph unicode="&#x200a;" horiz-adv-x="102" />
<glyph unicode="&#x2010;" horiz-adv-x="693" d="M67 432l27 130h526l-27 -130h-526z" />
<glyph unicode="&#x2011;" horiz-adv-x="693" d="M67 432l27 130h526l-27 -130h-526z" />
<glyph unicode="&#x2012;" horiz-adv-x="693" d="M67 432l27 130h526l-27 -130h-526z" />
<glyph unicode="&#x2013;" horiz-adv-x="1024" d="M60 441l23 112h884l-23 -112h-884z" />
<glyph unicode="&#x2014;" horiz-adv-x="2048" d="M60 441l23 112h1908l-23 -112h-1908z" />
<glyph unicode="&#x2018;" horiz-adv-x="416" d="M190 1130q0 209 284 389l32 -44q-159 -116 -159 -233q0 -82 81 -131q-4 -54 -38 -87t-83 -33q-52 0 -84.5 37.5t-32.5 101.5z" />
<glyph unicode="&#x2019;" horiz-adv-x="416" d="M220 1023q159 116 159 233q0 82 -81 131q4 54 38 87t83 33q52 0 84.5 -37.5t32.5 -101.5q0 -209 -284 -389z" />
<glyph unicode="&#x201a;" horiz-adv-x="445" d="M-13 -253q159 116 159 233q0 82 -81 131q4 54 38 87t83 33q52 0 84.5 -37.5t32.5 -101.5q0 -209 -284 -389z" />
<glyph unicode="&#x201c;" horiz-adv-x="736" d="M183 1130q0 209 284 389l32 -44q-159 -116 -159 -233q0 -82 81 -131q-4 -54 -38 -87t-83 -33q-52 0 -84.5 37.5t-32.5 101.5zM520 1130q0 209 284 389l32 -44q-159 -116 -159 -233q0 -82 81 -131q-4 -54 -38 -87t-83 -33q-52 0 -84.5 37.5t-32.5 101.5z" />
<glyph unicode="&#x201d;" horiz-adv-x="736" d="M213 1023q159 116 159 233q0 82 -81 131q4 54 38 87t83 33q52 0 84.5 -37.5t32.5 -101.5q0 -209 -284 -389zM550 1023q159 116 159 233q0 82 -81 131q4 54 38 87t83 33q52 0 84.5 -37.5t32.5 -101.5q0 -209 -284 -389z" />
<glyph unicode="&#x201e;" horiz-adv-x="775" d="M-23 -253q159 116 159 233q0 82 -81 131q4 54 38 87t83 33q52 0 84.5 -37.5t32.5 -101.5q0 -209 -284 -389zM314 -253q159 116 159 233q0 82 -81 131q4 54 38 87t83 33q52 0 84.5 -37.5t32.5 -101.5q0 -209 -284 -389z" />
<glyph unicode="&#x2022;" horiz-adv-x="642" d="M140 732q0 97 61 157.5t162 60.5q95 0 157 -60.5t62 -157.5t-62 -159t-157 -62q-101 0 -162 62t-61 159z" />
<glyph unicode="&#x2026;" horiz-adv-x="1437" d="M59 92q0 53 33.5 85.5t79.5 32.5q58 0 88.5 -32.5t30.5 -85.5t-34 -86.5t-87 -33.5q-51 0 -81 33.5t-30 86.5zM531 92q0 53 33.5 85.5t79.5 32.5q58 0 88.5 -32.5t30.5 -85.5t-34 -86.5t-87 -33.5q-51 0 -81 33.5t-30 86.5zM1023 92q0 53 33.5 85.5t79.5 32.5 q58 0 88.5 -32.5t30.5 -85.5t-34 -86.5t-87 -33.5q-51 0 -81 33.5t-30 86.5z" />
<glyph unicode="&#x202f;" horiz-adv-x="367" />
<glyph unicode="&#x2039;" horiz-adv-x="614" d="M80 449v36q201 149 411 372l48 -26q-112 -179 -259 -362q101 -190 174 -375l-41 -24q-165 224 -333 379z" />
<glyph unicode="&#x203a;" horiz-adv-x="614" d="M75 95q112 179 259 362q-101 190 -174 375l41 24q165 -224 333 -379v-36q-201 -149 -411 -372z" />
<glyph unicode="&#x205f;" horiz-adv-x="459" />
<glyph unicode="&#x20ac;" horiz-adv-x="1056" d="M23 378l16 79h138q4 62 20 126h-136l16 79h146q72 183 232 293t359 110q125 0 265 -38l4 -8l-107 -299l-34 -5l-17 247q-70 25 -142 25q-115 0 -220 -82t-164 -243h424l-16 -79h-430q-14 -62 -15 -126h422l-16 -79h-403q19 -143 104 -219.5t218 -76.5q111 0 234 53 l17 -38q-158 -123 -351 -123q-171 0 -284 104.5t-127 299.5h-153z" />
<glyph unicode="&#x2122;" horiz-adv-x="1437" d="M240 1394l3 4q133 -2 255 -2h31q121 0 255 2l4 -4l-35 -189l-21 -5l-34 149h-134v-293q0 -63 1 -105q1 -12 15 -15l74 -22l1 -24q-78 2 -143 2t-140 -2l-2 24l74 22q13 3 14 15q1 42 1 105v293h-135l-49 -144l-21 -5zM820 914l65 19q15 5 15 17q1 44 1 108v187 q0 53 -1 90q0 14 -13 17l-67 21v24q68 -2 104 -2q55 0 104 2l165 -356l167 357q47 -2 87 -2q41 0 108 2l2 -24l-67 -21q-13 -3 -14 -17q-1 -37 -1 -90v-188q0 -64 1 -108q1 -12 15 -17l65 -19l1 -24q-71 2 -136 2q-64 0 -126 -2l-2 24l62 18q13 5 13 19q1 43 1 107v236 l-188 -402l-33 -5l-189 407v-236q0 -64 1 -107q0 -14 15 -19l60 -18l1 -24q-65 2 -107 2q-39 0 -108 -2z" />
<glyph unicode="&#x25fc;" horiz-adv-x="935" d="M0 0v935h935v-935h-935z" />
</font>
</defs>
</svg>
